<svg xmlns="http://www.w3.org/2000/svg" viewBox="0 0 787.45 819.54"><g id="레이어_2" data-name="레이어 2"><g id="레이어_1-2" data-name="레이어 1"><path d="M0,409.76V6.89C0,0,0,0,6.79,0h774c6.63,0,6.63,0,6.63,6.65q0,402.23,0,804.46c0,8.42,0,8.43-8.36,8.43H7.2c-7.2,0-7.2,0-7.2-7.33Zm473.75-306c0,5,.06,10,0,15,0,2.42.67,3.74,3.38,3.72q14.34-.12,28.68,0c2.57,0,3.55-1.07,3.54-3.59q-.09-15,0-30c0-2.42-.74-3.71-3.42-3.69q-14.34.12-28.68,0c-2.6,0-3.55,1-3.5,3.58C473.82,93.75,473.75,98.75,473.75,103.74Zm-78.19,81.48c0,4.71.13,9.43,0,14.13-.12,3.22.89,4.66,4.36,4.59,9-.17,18-.13,27,0,3,0,4.4-.86,4.35-4.13-.15-9.71-.12-19.42,0-29.12,0-2.85-.79-4.14-3.88-4.09q-13.92.21-27.84,0c-3.05,0-4,1.19-4,4.07C395.66,175.51,395.57,180.37,395.56,185.22Zm-156.77,41c0,5,.05,10,0,15,0,2.41.68,3.73,3.39,3.71,9.55-.08,19.11-.06,28.67,0,2.24,0,3.49-.7,3.48-3.16q-.06-15.4,0-30.81c0-2.39-1.05-3.3-3.37-3.29q-14.32.07-28.67,0c-2.6,0-3.54,1.11-3.49,3.62C238.85,216.28,238.79,221.27,238.79,226.26Zm78.08.09c0,4.85.11,9.69,0,14.53-.09,2.85.77,4.14,3.86,4.09,9.26-.14,18.52-.12,27.78,0,2.89,0,4.13-.93,4.1-3.93-.1-9.83-.08-19.66,0-29.49,0-2.64-.88-3.91-3.71-3.89q-14.1.14-28.21,0c-2.71,0-3.87.94-3.79,3.74C317,216.38,316.88,221.37,316.87,226.35Zm-199.44.25c0-5-.12-10,0-15,.1-3-1.11-4-4-4q-13.68.16-27.38,0c-2.8,0-4.21.74-4.18,3.85.12,10,.09,20,0,30,0,2.59,1.06,3.51,3.6,3.49,9.41-.08,18.83-.1,28.24,0,2.81,0,3.79-1.1,3.72-3.81C117.35,236.3,117.43,231.45,117.43,226.6Zm238.81-.66c0,5,.11,10,0,15-.09,2.92.93,4.07,3.95,4,9.28-.13,18.57-.11,27.85,0,2.69,0,3.9-.86,3.87-3.69q-.14-15,0-30c0-2.91-1.36-3.64-3.95-3.62-9.29.08-18.57.11-27.85,0-3.11-.05-3.93,1.34-3.85,4.16C356.34,216.52,356.24,221.23,356.24,225.94Zm74.92.51c0-5-.09-10,0-15,.07-2.74-1-3.84-3.75-3.81q-13.92.14-27.84,0c-2.92,0-4.1,1-4.07,4q.15,14.77,0,29.55c0,2.74,1,3.81,3.8,3.78,9.28-.1,18.56-.12,27.83,0,2.94,0,4.13-1,4-4C431.05,236.16,431.16,231.31,431.16,226.45ZM316.88,22c0,5.14.07,10.28,0,15.42,0,2.58,1,3.55,3.55,3.53,9.41-.07,18.83-.1,28.25,0,3.06,0,3.95-1.31,3.92-4.13q-.12-14.57,0-29.12c0-3-1.16-4-4.08-4-9.27.11-18.55.13-27.83,0-3.11-.05-3.91,1.33-3.83,4.15C317,12.53,316.87,17.24,316.88,22ZM705.49,307.87c0-5,0-10,0-15,0-2.38-.6-3.78-3.34-3.76-9.7.08-19.4.05-29.1,0-2.17,0-3.1,1-3.09,3.11q0,15.42,0,30.82c0,2.36,1,3.31,3.35,3.3,9.56-.05,19.12-.07,28.68,0,2.59,0,3.57-1,3.53-3.55C705.42,317.85,705.49,312.86,705.49,307.87Zm42.62-123c0,5.15.07,10.29,0,15.43-.05,2.56,1,3.59,3.53,3.57,9.56-.07,19.13-.05,28.7,0,2.33,0,3.38-1,3.37-3.33q0-15.21,0-30.42c0-2.55-1-3.55-3.59-3.53q-14.15.12-28.28,0c-2.76,0-3.85,1-3.76,3.74C748.21,175.19,748.11,180.05,748.11,184.9Zm-274.37,41c0,5,.11,10,0,15-.08,2.9.86,4.11,3.91,4.06,9.28-.14,18.56-.11,27.84,0,2.69,0,3.91-.85,3.88-3.68q-.13-15,0-30c0-2.89-1.32-3.66-3.94-3.64-9.28.08-18.56.12-27.84,0-3.11-.05-3.93,1.32-3.84,4.14C473.85,216.5,473.75,221.21,473.74,225.93Zm0-204c0,5,.12,10,0,15-.09,2.92.92,4.09,3.93,4q13.9-.2,27.81,0c3.06,0,3.93-1.27,3.9-4.11q-.15-14.55,0-29.09c0-2.91-1-4.09-4-4.05q-13.9.18-27.8,0c-3.09-.05-3.95,1.28-3.87,4.12C473.85,12.5,473.74,17.21,473.74,21.91ZM670,185.06c0,4.85.12,9.71,0,14.56-.11,3.07.93,4.36,4.16,4.31,9.13-.14,18.27-.12,27.4,0,2.9,0,4.08-1,4-4-.12-9.84-.1-19.69,0-29.54,0-2.69-.85-3.86-3.7-3.82q-14.12.17-28.25,0c-2.91,0-3.69,1.3-3.64,3.91C670,175.36,670,180.21,670,185.06Zm-39.35-.18c0,5,.11,10,0,15-.09,2.93,1,4.1,3.95,4.06,9.14-.11,18.28-.13,27.41,0,3.11,0,4.33-1,4.28-4.2-.13-9.71-.11-19.42,0-29.12,0-2.93-1-4.06-4-4-9.28.13-18.56.11-27.84,0-2.73,0-3.88.9-3.8,3.71C630.72,175.16,630.62,180,630.62,184.88Zm35.54,123.05c0-5-.08-10,0-15,.07-2.72-.94-3.85-3.74-3.82q-13.92.15-27.84,0c-2.9,0-4.08.92-4,3.95.13,9.85.1,19.7,0,29.55,0,2.72.91,3.84,3.72,3.8q13.92-.15,27.84,0c2.9,0,4.16-.91,4.07-3.93C666.05,317.64,666.16,312.78,666.16,307.93Zm0-285.42c0-4.85-.13-9.7,0-14.54.11-3.1-1-4.35-4.17-4.3-9.12.14-18.25.12-27.37,0-2.85,0-4.14.81-4.1,3.89.13,9.83.1,19.67,0,29.51,0,2.7.87,3.87,3.69,3.84q14.12-.15,28.23,0c2.84,0,3.76-1.19,3.7-3.87C666.08,32.21,666.16,27.36,666.17,22.51ZM591.25,185.27c0,4.86.11,9.72,0,14.57-.1,2.9.87,4.13,3.9,4.09q13.93-.18,27.85,0c3.07,0,3.94-1.34,3.91-4.16q-.12-14.56,0-29.13c0-2.89-1-4.08-4-4q-13.92.19-27.85,0c-3.13-.05-3.91,1.31-3.82,4.13C591.36,175.56,591.26,180.42,591.25,185.27ZM548.63,226.4c0-5-.1-10,0-15,.08-2.79-1.07-3.78-3.8-3.75q-13.9.14-27.82,0c-2.59,0-4,.69-4,3.61.1,10.13.06,20.26,0,30.39,0,2.38,1,3.29,3.36,3.28q14.34-.09,28.68,0c2.61,0,3.56-1,3.52-3.57C548.56,236.39,548.63,231.39,548.63,226.4ZM748.11,22.16c0,5,.1,10,0,15-.08,2.76,1,3.81,3.74,3.78q13.91-.15,27.81,0c2.87,0,4.14-.9,4.1-3.92q-.15-14.76,0-29.52c0-2.73-1.05-3.82-3.8-3.79q-14.11.13-28.23,0c-2.9,0-3.67,1.31-3.61,3.93C748.19,12.47,748.1,17.32,748.11,22.16ZM316.87,674.63c0,5,.1,10,0,15-.08,2.79,1,3.79,3.78,3.76q13.92-.14,27.84,0c2.89,0,4.14-1,4.11-4q-.15-14.77,0-29.55c0-2.78-1.15-3.78-3.86-3.75-9.28.08-18.57.1-27.84,0-2.91,0-4.14.92-4,4C317,664.92,316.87,669.78,316.87,674.63ZM548.63,185.47c0-4.85-.11-9.71,0-14.56.09-3-.76-4.4-4.09-4.33-9.13.17-18.26.13-27.4,0-2.83,0-4.17.76-4.13,3.85.13,9.84.1,19.69,0,29.54,0,2.63.78,3.95,3.65,3.92q14.13-.14,28.25,0c2.85,0,3.75-1.22,3.68-3.89C548.55,195.17,548.63,190.32,548.63,185.47Zm-74.89-.27c0,4.85.1,9.71,0,14.56-.08,2.81.71,4.21,3.83,4.17,9.28-.13,18.56-.09,27.84,0,2.61,0,4-.75,3.95-3.64-.09-10-.07-20,0-30,0-2.43-.74-3.69-3.43-3.67q-14.36.13-28.7,0c-2.64,0-3.52,1.09-3.47,3.59C473.82,175.2,473.75,180.2,473.74,185.2Zm117.52,41.12c0,4.86.11,9.71,0,14.56-.09,2.86.77,4.14,3.86,4.09q13.92-.21,27.84,0c3,0,4-1.22,4-4.09q-.14-14.55,0-29.12c0-2.85-.92-4.15-4-4.11q-13.92.18-27.84,0c-3.07,0-4,1.26-3.87,4.12C591.36,216.61,591.25,221.47,591.26,226.32ZM748.1,593.24c0,4.86.12,9.72,0,14.57-.09,2.87.8,4.13,3.88,4.08q13.92-.21,27.84,0c3.05,0,4-1.24,3.94-4.1q-.13-14.55,0-29.12c0-2.87-.91-4.13-4-4.1q-13.92.2-27.84,0c-3.08,0-4,1.25-3.87,4.11C748.21,583.53,748.1,588.39,748.1,593.24ZM670,593c0,5,.11,10,0,15-.09,3,1.12,4,4.05,3.95,9.27-.12,18.54-.09,27.82,0,2.41,0,3.74-.65,3.72-3.36q-.12-15.19,0-30.39c0-2.58-1-3.54-3.59-3.52q-14.11.1-28.25,0c-2.79,0-3.8,1.1-3.74,3.82C670.06,583.25,670,588.11,670,593Zm-3.8.66c0-5-.11-10,0-15,.09-2.91-1-4.1-4-4.06-9.28.13-18.56.11-27.84,0-2.7,0-3.85.89-3.82,3.72q.15,15,0,30c0,2.93,1.33,3.61,3.93,3.59,9.28-.09,18.56-.13,27.84,0,3.12.05,3.93-1.33,3.85-4.14C666.07,603,666.17,598.33,666.17,593.62Zm-74.91-.5c0,5.14,0,10.28,0,15.42,0,2.36.92,3.34,3.3,3.32q14.34-.09,28.69,0c2.53,0,3.63-1,3.62-3.52q-.08-15,0-30c0-2.74-1.06-3.82-3.81-3.79q-14.13.13-28.26,0c-2.55,0-3.62.95-3.56,3.53C591.33,583.13,591.26,588.13,591.26,593.12Zm-42.63-.26c0-4.85,0-9.7,0-14.55,0-2.42-.7-3.73-3.39-3.71q-14.34.1-28.69,0c-2.6,0-3.51,1.1-3.49,3.61q.09,15,0,30c0,2.43.7,3.72,3.4,3.7q14.34-.12,28.68,0c2.61,0,3.53-1.08,3.49-3.6C548.57,603.14,548.63,598,548.63,592.86Zm-74.89.4c0,4.86.11,9.71,0,14.56-.09,2.89.84,4.12,3.9,4.07q13.92-.2,27.84,0c3.07,0,3.93-1.26,3.9-4.11q-.15-14.55,0-29.12c0-2.87-.91-4.12-3.94-4.09q-13.92.18-27.84,0c-3.09,0-3.94,1.29-3.86,4.13C473.85,583.55,473.74,588.41,473.74,593.26Zm0-122.89c0,5,.12,10,0,15-.09,2.93.95,4.08,3.95,4q13.69-.18,27.39,0c3.09,0,4.36-1,4.31-4.17q-.19-14.57,0-29.11c0-2.94-1-4.06-4-4-9.27.11-18.55.13-27.82,0-3.13,0-3.91,1.34-3.83,4.15C473.85,460.94,473.74,465.66,473.74,470.37ZM356.24,593.26c0,4.85.1,9.71,0,14.57-.09,2.88.87,4.11,3.92,4.06q13.92-.2,27.85,0c3.08.05,3.94-1.24,3.91-4.1q-.15-14.56,0-29.13c0-2.88-.91-4.13-3.94-4.09q-13.92.2-27.85,0c-3.08,0-4,1.27-3.89,4.12C356.34,583.54,356.24,588.4,356.24,593.26Zm-3.72-.11c0-5,0-10,0-15,0-2.5-1-3.61-3.55-3.59q-14.33.1-28.64,0c-2.57,0-3.52,1-3.51,3.57q.12,15,0,29.91c0,2.73.9,3.83,3.71,3.8q14.1-.15,28.21,0c2.75,0,3.86-1,3.8-3.77C352.46,603.13,352.53,598.14,352.52,593.15ZM783.68,104c0-5-.07-10,0-15,.06-2.73-1-3.82-3.78-3.8q-14.13.15-28.26,0c-2.92,0-3.62,1.28-3.6,3.91q.13,14.78,0,29.55c0,2.72.91,3.85,3.72,3.82,9.27-.09,18.55-.13,27.83,0,3.29,0,4.19-1.38,4.1-4.38C783.58,113.38,783.68,108.67,783.68,104Zm0,204c0-4.85-.11-9.71,0-14.56.11-3.1-1-4.33-4.2-4.28-9.14.15-18.28.13-27.41,0-2.9,0-4.09.9-4.05,3.94.13,9.84.11,19.7,0,29.55,0,2.71.87,3.85,3.7,3.81,9.27-.1,18.56-.14,27.83,0,3.3.06,4.22-1.34,4.12-4.35C783.58,317.37,783.69,312.65,783.68,307.94ZM117.43,593.48c0-4.85-.11-9.7,0-14.55.09-3-.78-4.42-4.09-4.37-9.12.16-18.25.12-27.38,0-2.84,0-4.17.81-4.13,3.88.12,9.84.09,19.68,0,29.53,0,2.62.75,3.92,3.65,3.89q14.11-.17,28.24,0c2.85,0,3.75-1.18,3.68-3.85C117.35,603.18,117.43,598.33,117.43,593.48ZM356.25,185.2c0,5,.05,10,0,15,0,2.44.75,3.73,3.42,3.71q14.34-.1,28.7,0c2.6,0,3.53-1.13,3.52-3.63q-.09-15,0-30c0-2.45-.75-3.69-3.44-3.67q-14.35.13-28.71,0c-2.62,0-3.54,1.08-3.49,3.59C356.31,175.2,356.25,180.2,356.25,185.2Zm-39.38-.14c0,5,.09,10,0,15-.07,2.66.79,3.92,3.64,3.89q14.11-.14,28.22,0c2.7,0,3.87-1,3.85-3.76-.07-10-.05-19.94,0-29.92,0-2.46-.87-3.64-3.5-3.62q-14.31.12-28.64,0c-2.54,0-3.61.89-3.55,3.49C317,175.09,316.88,180.08,316.87,185.06Zm313.75,40.88c0,5,.1,10,0,15-.08,2.9.89,4.09,3.93,4,9.28-.13,18.56-.11,27.83,0,2.7,0,3.89-.86,3.87-3.69q-.15-15,0-30c0-2.89-1.33-3.66-3.94-3.64-9.28.08-18.56.11-27.84,0-3.12-.05-3.91,1.35-3.83,4.16C630.72,216.52,630.62,221.23,630.62,225.94ZM238.78,184.8c0,4.85.13,9.71-.05,14.55-.12,3.21.83,4.66,4.32,4.59,9-.18,18-.14,27,0,3,0,4.38-.86,4.33-4.13-.15-9.7-.12-19.4,0-29.1,0-2.83-.76-4.16-3.87-4.11q-13.9.21-27.82,0c-3.07,0-4,1.23-3.9,4.09C238.88,175.38,238.78,180.09,238.78,184.8Zm466.71,41.14c0-4.71-.09-9.42,0-14.13.08-2.8-.71-4.21-3.83-4.16-9.27.12-18.55.09-27.82,0-2.62,0-4,.75-3.94,3.64q.15,15,0,30c0,2.81,1.14,3.73,3.85,3.7,9.27-.1,18.55-.13,27.82,0,3,.05,4-1.17,3.92-4.05C705.39,235.93,705.5,230.93,705.49,225.94Zm42.62.39c0,4.86.11,9.71,0,14.56-.09,2.87.8,4.13,3.88,4.08q13.92-.21,27.84,0c3.06,0,4-1.25,3.93-4.09q-.13-14.56,0-29.13c0-2.86-.91-4.14-4-4.1q-13.92.18-27.84,0c-3.08,0-3.95,1.26-3.86,4.12C748.22,216.62,748.11,221.48,748.11,226.33ZM666.17,104c0-4.85-.13-9.71,0-14.55.11-3.11-1-4.33-4.17-4.28-9.13.16-18.27.13-27.4,0-2.87,0-4.11.86-4.07,3.91.13,9.85.11,19.7,0,29.54,0,2.71.89,3.87,3.71,3.84q14.12-.15,28.25,0c2.88,0,3.71-1.28,3.65-3.92C666.09,113.68,666.16,108.83,666.17,104ZM548.63,307.84c0-5-.06-10,0-15,0-2.4-.65-3.74-3.36-3.72q-14.34.11-28.68,0c-2.57,0-3.54,1.07-3.52,3.6q.09,15.18,0,30.38c0,2.38,1,3.29,3.37,3.28,9.56-.05,19.11-.07,28.67,0,2.61,0,3.56-1.06,3.51-3.58C548.57,317.83,548.63,312.84,548.63,307.84ZM748.1,470.36c0,5,.12,10,0,15-.09,2.93,1,4.08,4,4q13.69-.18,27.39,0c3.08.05,4.38-.95,4.33-4.17-.13-9.7-.11-19.4,0-29.11,0-2.94-1.06-4.05-4-4-9.27.11-18.55.13-27.83,0-3.12,0-3.9,1.33-3.82,4.15C748.21,460.94,748.1,465.65,748.1,470.36ZM117.42,307.64c0-5-.06-10,0-15,0-2.57-1-3.55-3.58-3.53-9.41.07-18.83.09-28.24,0-2.79,0-3.77,1.09-3.74,3.82q.14,15,0,29.95c0,2.59,1,3.53,3.58,3.51,9.42-.07,18.83-.09,28.24,0,2.81,0,3.81-1.07,3.74-3.8C117.35,317.62,117.43,312.63,117.42,307.64Zm199.46-.19c0,5.14.07,10.29,0,15.43-.06,2.59,1,3.54,3.56,3.52,9.57-.08,19.14-.06,28.71,0,2.33,0,3.41-.93,3.41-3.29q0-15.21,0-30.43c0-2.56-1.1-3.55-3.63-3.54q-14.15.11-28.29,0c-2.74,0-3.86,1-3.78,3.76C317,297.73,316.88,302.59,316.88,307.45Zm39.37,0c0,5.14,0,10.29,0,15.43,0,2.22.66,3.49,3.15,3.48q14.56-.08,29.14,0c2.36,0,3.34-1,3.33-3.34q-.08-15.21,0-30.41c0-2.6-1.11-3.52-3.62-3.51-9.43.07-18.85.09-28.28,0-2.78,0-3.82,1.06-3.75,3.8C356.33,297.77,356.25,302.63,356.25,307.48ZM316.88,103.62c0,5,.09,10,0,15-.07,2.72.9,3.86,3.71,3.83q14.13-.15,28.28,0c2.83,0,3.74-1.25,3.72-3.9q-.09-14.77,0-29.56c0-2.72-1-3.84-3.8-3.81q-14.13.13-28.27,0c-2.87,0-3.72,1.22-3.65,3.88C317,93.91,316.87,98.77,316.88,103.62Zm75,.51c0-5-.07-10,0-15,.05-2.59-.67-4-3.6-4-9.56.1-19.12.07-28.69,0-2.33,0-3.36.9-3.35,3.29q.07,15.21,0,30.41c0,2.57,1,3.56,3.57,3.54q14.13-.1,28.26,0c2.74,0,3.88-1,3.81-3.77C391.75,113.83,391.83,109,391.84,104.13Zm81.9,203.4c0,5,.09,10,0,15-.06,2.63.73,3.93,3.63,3.89q14.13-.17,28.26,0c2.83,0,3.75-1.15,3.73-3.83q-.12-14.77,0-29.55c0-2.63-.8-3.94-3.67-3.91q-14.13.15-28.26,0c-2.85,0-3.75,1.17-3.69,3.85C473.83,297.82,473.75,302.68,473.74,307.53ZM666.17,470.92c0-4.85-.13-9.71,0-14.55.11-3.1-.94-4.34-4.16-4.28-9.13.15-18.27.12-27.4,0-2.85,0-4.13.81-4.08,3.89.13,9.84.1,19.69,0,29.53,0,2.7.87,3.89,3.69,3.86q14.13-.15,28.26,0c2.86,0,3.72-1.27,3.66-3.91C666.09,480.62,666.16,475.77,666.17,470.92ZM431.16,308h-.06c0-5.14-.1-10.29,0-15.42.07-2.62-.94-3.5-3.51-3.48q-14.14.17-28.29,0c-2.76,0-3.82,1.05-3.8,3.8q.12,14.77,0,29.56c0,2.61.75,4,3.65,3.93q14.15-.15,28.29,0c2.83,0,3.78-1.13,3.71-3.83C431.07,317.73,431.16,312.87,431.16,308Zm81.95-204.36c0,5,.08,10,0,15-.06,2.7.91,3.87,3.72,3.84q14.1-.14,28.21,0c2.49,0,3.66-.86,3.65-3.47q-.1-15,0-29.93c0-2.67-1-3.88-3.76-3.86q-14.1.13-28.21,0c-2.93,0-3.65,1.36-3.6,4C513.18,94,513.11,98.81,513.11,103.65ZM81.92,185.23c0,4.85.09,9.7,0,14.54-.07,2.81.77,4.2,3.86,4.15q13.91-.18,27.8,0c3,0,4-1.22,3.92-4.1-.11-9.69-.09-19.38,0-29.07,0-2.82-.84-4.19-3.91-4.15-9.26.11-18.53.13-27.79,0-3.09-.05-4,1.27-3.88,4.1C82,175.54,81.92,180.38,81.92,185.23Zm509.33-81.58c0,5,.09,10,0,15-.07,2.71.9,3.86,3.71,3.83q14.1-.15,28.23,0c2.83,0,3.72-1.26,3.7-3.9-.07-9.83-.09-19.67,0-29.51,0-3.08-1.36-3.89-4.17-3.86-9.13.1-18.25.13-27.38,0-3.26,0-4.22,1.34-4.12,4.37C591.36,94.23,591.25,98.94,591.25,103.65Zm-473.83.27c0-5-.07-10,0-15,0-2.75-1.14-3.8-3.84-3.77-9.4.07-18.81,0-28.21,0-2.23,0-3.49.7-3.48,3.16q.06,15.39,0,30.77c0,2.36,1,3.32,3.36,3.31q14.33-.08,28.64,0c2.55,0,3.59-1,3.54-3.56C117.36,113.89,117.42,108.91,117.42,103.92ZM670,103.76c0,4.85.09,9.69,0,14.54-.07,2.78.73,4.2,3.84,4.16,9.4-.13,18.81-.09,28.21,0,2.58,0,3.54-1,3.53-3.58q-.1-15,0-29.92c0-2.78-1.17-3.78-3.86-3.76-9.26.08-18.53.11-27.79,0-3,0-4,1.18-3.93,4.07C670.07,94.07,670,98.92,670,103.76ZM548.63,471.05c0-5-.06-10,0-15,.05-2.59-.77-4-3.64-4-9.55.07-19.1.05-28.65,0-2.38,0-3.28,1.06-3.27,3.37,0,10.12.07,20.24,0,30.35,0,2.59,1.09,3.53,3.6,3.52q14.1-.11,28.21,0c2.76,0,3.84-1.05,3.77-3.79C548.55,480.74,548.63,475.9,548.63,471.05ZM238.78,593.27c0,4.7.15,9.41-.05,14.11-.13,3.25.88,4.6,4.35,4.53,9-.19,18-.15,26.94,0,3.09,0,4.36-1,4.32-4.19q-.18-14.54,0-29.08c0-2.9-.95-4.08-3.95-4q-13.68.18-27.37,0c-3.08-.05-4.4.94-4.28,4.16C238.92,583.57,238.79,588.42,238.78,593.27Zm192.37.08c0-5-.08-10,0-15,.06-2.74-1-3.81-3.77-3.78q-13.91.13-27.81,0c-2.9,0-4.11,1-4.08,4q.15,14.76,0,29.52c0,2.7.95,3.85,3.75,3.82q13.9-.15,27.81,0c2.92,0,4.16-1,4.09-4C431.07,603.05,431.15,598.2,431.15,593.35Zm0-122.26c0-5,0-10,0-15,0-2.57-.71-4-3.62-4-9.55.08-19.1.06-28.65,0-2.35,0-3.35,1-3.34,3.32q0,15.18,0,30.36c0,2.55,1.06,3.57,3.59,3.55,9.41-.06,18.82-.07,28.22,0,2.72,0,3.89-.95,3.82-3.75C431.07,480.79,431.16,475.94,431.15,471.09Zm-74.9-.67c0,5.13.06,10.27,0,15.4-.05,2.57,1,3.56,3.57,3.55q14.11-.11,28.24,0c2.7,0,3.86-.94,3.84-3.74q-.14-14.76,0-29.52c0-3-1.17-4-4.08-4q-13.91.13-27.81,0c-2.76,0-3.85,1-3.77,3.76C356.33,460.72,356.24,465.57,356.25,470.42Zm-3.73.27c0-5,0-10,0-15,0-2.52-1-3.6-3.56-3.58q-14.13.11-28.25,0c-2.66,0-3.91.88-3.89,3.72q.14,15,0,30c0,2.56,1,3.57,3.53,3.56,9.42-.07,18.84-.1,28.26,0,3.06,0,4-1.31,3.92-4.14C352.45,480.39,352.53,475.54,352.52,470.69ZM591.26,22.26c0,5,0,10,0,15,0,2.08.33,3.67,3,3.66q14.74-.06,29.49,0c2.13,0,3.14-1,3.14-3.09q0-15.39,0-30.77c0-2.36-1.09-3.31-3.4-3.3q-14.31.06-28.63,0c-2.53,0-3.61,1-3.57,3.59C591.33,12.28,591.27,17.27,591.26,22.26Zm-235-.33c0,5,.11,10,0,15-.09,2.92,1,4.06,4,4q13.89-.2,27.79,0c3,0,4-1.21,3.93-4.09q-.17-14.54,0-29.07c0-2.89-1.08-4.11-4-4.08-9.26.09-18.53.12-27.79,0-3.11-.05-3.93,1.34-3.85,4.14C356.34,12.52,356.24,17.23,356.24,21.93Zm270.6,448.79c0-4.85-.09-9.7,0-14.54.08-2.87-.93-4.12-4-4.08q-13.89.18-27.8,0c-3,0-3.93,1.31-3.9,4.15q.13,14.53,0,29.08c0,2.9.92,4.09,3.94,4.05q13.89-.18,27.79,0c3,0,4-1.28,3.93-4.12C626.75,480.42,626.84,475.57,626.84,470.72ZM81.92,22.05c0,5,.08,10,0,15-.06,2.65.81,3.92,3.67,3.89q13.92-.15,27.83,0c2.9,0,4.1-1,4.07-4q-.13-14.55,0-29.11c0-2.88-1-4.13-4-4.1q-13.9.13-27.82,0c-2.78,0-3.82,1.07-3.75,3.81C82,12.34,81.92,17.2,81.92,22.05ZM117.43,470.9c0-5-.08-10,0-15,.06-2.71-.92-3.82-3.74-3.79q-13.9.15-27.79,0c-2.91,0-4.09.94-4.05,3.94.12,9.84.1,19.67,0,29.5,0,2.71.94,3.86,3.73,3.84q14.11-.13,28.22,0c2.9,0,3.67-1.34,3.62-3.94C117.36,480.59,117.43,475.75,117.43,470.9Zm509.4-162.77c0-5.14-.05-10.27,0-15.4,0-2.5-1-3.62-3.54-3.6q-14.12.11-28.23,0c-2.68,0-3.88,1-3.85,3.75q.12,14.76,0,29.51c0,2.94,1.07,4.06,4,4,9.26-.11,18.53-.09,27.79,0,2.73,0,3.89-1,3.83-3.75C626.76,317.82,626.83,313,626.83,308.13Zm0,366.66c0-5-.05-10,0-15,0-2.48-.88-3.67-3.5-3.65q-14.15.11-28.29,0c-2.7,0-3.86,1-3.84,3.79q.13,14.77,0,29.57c0,2.7,1,3.89,3.76,3.87q14.13-.12,28.28,0c2.57,0,3.62-1,3.58-3.58C626.78,684.79,626.83,679.79,626.83,674.79ZM431.1,104.16h.06c0-5-.1-10,0-15,.08-3-1.14-4-4.06-4q-13.9.15-27.82,0c-2.78,0-3.79,1.09-3.77,3.81q.12,14.77,0,29.53c0,2.62.79,4,3.67,3.94q14.32-.14,28.67,0c2.44,0,3.28-1,3.25-3.31C431.05,114.15,431.1,109.16,431.1,104.16ZM705.49,471c0-5.14-.06-10.27,0-15.4,0-2.29-.76-3.46-3.19-3.45q-14.54,0-29.08,0c-2.39,0-3.29,1.05-3.28,3.37q.07,15.18,0,30.36c0,2.59,1.11,3.52,3.61,3.51,9.41-.07,18.82-.09,28.23,0,2.8,0,3.79-1.13,3.72-3.83C705.41,480.7,705.49,475.85,705.49,471ZM274.29,103.76c0-4.86-.09-9.72,0-14.57.07-3-1.14-4-4.07-4q-13.71.17-27.41,0c-2.91,0-4.13,1-4.1,4q.13,14.79,0,29.56c0,2.82,1.16,3.74,3.85,3.72,9.28-.09,18.57-.11,27.85,0,3.09,0,4-1.31,3.87-4.14C274.2,113.47,274.3,108.61,274.29,103.76Zm-35.5,203.6c0,5.14.05,10.28,0,15.43,0,2.49.87,3.63,3.49,3.61q14.14-.12,28.29,0c2.79,0,3.79-1.16,3.78-3.85q-.1-14.79,0-29.57c0-2.7-1-3.87-3.81-3.85-9.29.08-18.57.11-27.85,0-3.06,0-4,1.24-3.91,4.11C238.89,297.93,238.79,302.65,238.79,307.36ZM513.11,22.07c0,5,.08,10,0,15-.06,2.68.86,3.88,3.7,3.85q13.9-.13,27.83,0c2.93,0,4.08-1.1,4-4q-.13-14.57,0-29.12c0-2.92-1.06-4.1-4-4.07q-13.9.15-27.83,0c-2.8,0-3.81,1.1-3.74,3.82C513.19,12.36,513.11,17.22,513.11,22.07Zm235,652.5c0,5,.09,10,0,15-.07,2.72.87,3.87,3.69,3.84q14.12-.15,28.24,0c2.83,0,3.73-1.21,3.71-3.87q-.11-14.76,0-29.52c0-2.7-1-3.84-3.78-3.81q-14.13.14-28.24-.06c-2.89,0-3.69,1.25-3.62,3.9C748.2,664.87,748.1,669.72,748.11,674.57ZM235,593.46c0-5.15,0-10.29,0-15.43,0-2.3-.86-3.43-3.26-3.42q-14.35.07-28.72,0c-2.57,0-3.56,1.14-3.55,3.64q.06,15,0,30c0,2.5,1,3.64,3.55,3.62,9.43-.06,18.86-.09,28.29,0,2.84,0,3.77-1.17,3.71-3.86C234.89,603.17,235,598.31,235,593.46Zm3.83,81.17c0,5,.09,10,0,15-.07,2.78,1.07,3.79,3.81,3.76,9.27-.09,18.55-.11,27.83,0,3,0,4-1.19,3.94-4.07q-.16-14.57,0-29.12c0-2.92-1.05-4.11-4-4.07-9.14.09-18.27.11-27.41,0-3.23,0-4.25,1.35-4.16,4.39C238.89,665.21,238.79,669.92,238.79,674.63ZM670,22.09c0,5.14,0,10.27,0,15.41,0,2.31.88,3.4,3.27,3.39q14.34-.07,28.68,0c2.55,0,3.6-1.08,3.59-3.6q-.07-15,0-30c0-2.52-1-3.63-3.57-3.61-9.42,0-18.84.06-28.26,0-2.8,0-3.79,1.14-3.73,3.85C670.05,12.38,670,17.24,670,22.09ZM199.45,470.65c0,4.86.1,9.72,0,14.57-.08,2.81.73,4.21,3.85,4.17q13.92-.19,27.85,0c3.09,0,3.92-1.33,3.89-4.15-.1-9.72-.12-19.43,0-29.14,0-3-1.18-4-4.07-4-9.14.1-18.28.11-27.42,0-3.3-.06-4.2,1.42-4.11,4.41C199.56,461.22,199.45,465.94,199.45,470.65Zm74.85.36c0-4.85-.13-9.71,0-14.56.11-3.06-.84-4.38-4.11-4.33-9.14.15-18.28.1-27.42,0-2.95,0-4.08,1.13-4.05,4.06q.13,14.56,0,29.13c0,2.89.92,4.13,3.94,4.09,9.28-.12,18.57-.1,27.85,0,2.77,0,3.85-1.05,3.78-3.8C274.21,480.73,274.29,475.87,274.3,471ZM235,308c0-5-.1-10,0-15,.09-3-1.16-4-4.06-4-9.12.11-18.24.15-27.36,0-3.27-.06-4.19,1.27-4.15,4.29q.13,14.53,0,29.07c0,3,1.2,4,4.09,4,9.12-.1,18.24-.14,27.36,0,3.24.06,4.25-1.23,4.14-4.3C234.85,317.44,235,312.73,235,308ZM199.5,103.62h0c0,5,.07,10,0,15,0,2.58.61,3.92,3.59,3.87,9.41-.14,18.83-.11,28.24,0,2.81,0,3.74-1.18,3.72-3.86q-.12-14.78,0-29.53c0-2.64-.81-3.93-3.67-3.89q-14.13.15-28.25,0c-2.92,0-3.66,1.3-3.61,3.91C199.58,93.92,199.5,98.77,199.5,103.62Zm39.29-81.41c0,5,.09,10,0,15-.07,2.79,1.1,3.76,3.82,3.73q13.89-.13,27.79,0c3,0,4-1.29,3.95-4.13q-.12-14.54,0-29.08c0-3-1.19-4-4.08-4-9.13.09-18.25.12-27.37,0-3.26,0-4.21,1.43-4.13,4.42C238.89,12.8,238.79,17.51,238.79,22.21ZM548.64,675.07c0-4.85-.13-9.72,0-14.57.11-3-.81-4.4-4.09-4.35-9.14.13-18.28.07-27.43,0-2.89,0-4.12,1-4.09,4q.15,14.77,0,29.57c0,2.88,1.26,3.68,3.91,3.66,9.29-.09,18.57-.12,27.86,0,3.13.05,3.91-1.38,3.83-4.17C548.54,684.51,548.64,679.79,548.64,675.07ZM431.15,22.51h0c0-5,0-10,0-15,0-2.68-1.2-3.85-3.91-3.83q-13.9.09-27.81,0c-2.68,0-3.91.89-3.89,3.7.09,10,.07,20,0,30,0,2.55,1.06,3.57,3.6,3.55q14.12-.09,28.24,0c2.76,0,3.84-1.13,3.79-3.84C431.09,32.21,431.15,27.36,431.15,22.51Zm42.6,651.92c0,5.13.07,10.27,0,15.4-.05,2.57,1,3.56,3.54,3.54q14.12-.11,28.23,0c2.7,0,3.87-.93,3.84-3.73-.08-9.84-.11-19.68,0-29.51,0-3-1.2-3.93-4.07-3.91-9.27.08-18.54,0-27.81-.1-2.74,0-3.84,1-3.76,3.76C473.85,664.73,473.74,669.58,473.75,674.43Zm-78.18.11h0c0,5.13,0,10.26,0,15.39,0,2.26.84,3.43,3.25,3.42q14.54-.06,29.07,0c2.4,0,3.29-1.06,3.28-3.37q-.07-15.18,0-30.35c0-2.26-.87-3.48-3.26-3.47q-14.53.06-29.07.05c-2.63,0-3.37,1.33-3.3,3.78C395.66,664.84,395.57,669.69,395.57,674.54Zm235.05,0c0,5,.09,10,0,15-.07,2.71.9,3.86,3.71,3.83,9.41-.1,18.83-.08,28.24,0,2.47,0,3.67-.83,3.65-3.46q-.09-15.2,0-30.38c0-2.44-1-3.29-3.27-3.28q-14.55,0-29.1-.06c-2.37,0-3.28,1-3.24,3.4C630.69,664.58,630.62,669.58,630.62,674.57Zm39.35-.3c0,5,.09,10,0,15-.07,2.79.72,4.21,3.84,4.16,9.4-.13,18.8-.09,28.21,0,2.57,0,3.54-1,3.53-3.57-.07-10-.1-19.95,0-29.92,0-2.85-1.18-3.75-3.83-3.72q-14.12.11-28.21,0c-2.56,0-3.6,1-3.55,3.55C670.05,664.58,670,669.43,670,674.27Zm-435-489c0-4.71-.13-9.42.05-14.12.13-3.24-.88-4.6-4.35-4.53q-13.47.28-26.95,0c-3.14-.06-4.34.95-4.29,4.13q.19,14.74,0,29.51c0,2.89,1.23,3.71,3.87,3.69,9.26-.08,18.53-.11,27.8,0,3.09,0,3.94-1.35,3.87-4.16C234.88,194.91,235,190.06,235,185.22ZM356.24,674.54c0,4.85.12,9.7-.05,14.55-.1,3.07.88,4.37,4.14,4.31q13.68-.23,27.39,0c3.22.05,4.21-1.21,4.17-4.29q-.19-14.34,0-28.68c0-2.86-.82-4.22-3.82-4.21q-14.34.09-28.68,0c-2.43,0-3.23,1-3.18,3.37C356.32,664.55,356.24,669.54,356.24,674.54ZM235,226.44c0-5-.07-10,0-15,.06-2.72-1-3.85-3.75-3.82q-13.91.15-27.79,0c-2.73,0-3.88,1-3.87,3.75q0,15.17-.12,30.34c0,2.39.94,3.23,3.32,3.21q14.33-.14,28.65,0c2.57,0,3.59-1,3.55-3.55C234.91,236.41,235,231.43,235,226.44Zm0-203.69c0-4.85-.13-9.7.05-14.54.13-3.25-.9-4.62-4.36-4.55q-13.47.27-26.94,0c-3.26-.07-4.25,1.23-4.23,4.24.06,9.69,0,19.39,0,29.08,0,2.63,1,3.93,3.81,3.91q14.1-.09,28.22,0c2.61,0,3.55-1.11,3.5-3.61C234.91,32.44,235,27.6,235,22.75ZM235,675c0-4.85-.07-9.7,0-14.55.06-2.7-.51-4.17-3.78-4.12-9.26.13-18.54,0-27.8-.19-3-.06-4,1.18-4,4.08q.15,14.55,0,29.1c0,2.9,1.06,4.1,4,4.07q13.91-.15,27.81,0c2.8,0,3.8-1.13,3.74-3.84C234.89,684.7,235,679.84,235,675Zm-153,.06c0,4.71.13,9.42,0,14.11-.12,3.15,1,4.29,4.21,4.24q13.47-.23,26.94,0c3.33.06,4.52-1.06,4.46-4.43-.17-9.26-.2-18.53,0-27.79.09-3.64-1.49-4.92-4.74-4.93q-13.45,0-26.93,0c-2.89,0-4,1.46-4,4.3C82,665.36,81.93,670.21,81.92,675.05ZM473.75,388.92c0,5.14.07,10.28,0,15.41-.05,2.57,1,3.59,3.54,3.57,9.41-.07,18.83-.09,28.25,0,2.73,0,3.84-1,3.82-3.76-.08-9.84-.11-19.69,0-29.54,0-2.94-1.14-3.55-3.83-3.51-9.41.14-18.84.17-28.25,0-2.95-.06-3.68,1-3.58,3.71C473.86,379.5,473.74,384.21,473.75,388.92Zm39.36,122.51c0,4.85.09,9.71,0,14.56-.08,2.8.58,4.08,3.81,4,9.13-.19,18.28,0,27.41.08,3,0,4.44-.91,4.39-4.17q-.2-14.35,0-28.71c0-3.29-1.34-4.14-4.36-4.1q-13.5.18-27,0c-3.11-.05-4.41,1-4.28,4.18C513.24,502,513.11,506.72,513.11,511.43Zm-121.27.51c0-5-.08-10,0-15,.06-2.7-.92-3.87-3.73-3.85q-14.11.15-28.22,0c-2.82,0-3.74,1.16-3.71,3.85q.14,14.53,0,29.08c0,2.9,1,4.08,4,4,9.26-.16,18.53-.25,27.79-.07,3.15.06,4-1.09,3.88-4C391.74,521.35,391.84,516.64,391.84,511.94Zm391.85-.09c0-4.85-.13-9.71,0-14.55.11-3.21-1.21-4.24-4.3-4.19q-13.71.19-27.41,0c-3,0-4,1.07-4,4,.12,9.42.15,18.85,0,28.26-.06,3.33,1.07,4.59,4.43,4.55q13.9-.18,27.83.06c2.81.06,3.42-1.2,3.39-3.59C783.64,521.56,783.68,516.71,783.69,511.85Zm-352.54-.37c0-5,0-10,0-15,0-2.33-.94-3.37-3.31-3.35-9.71.05-19.41,0-29.12,0-2.12,0-3.16.93-3.16,3.08q0,15.42,0,30.83c0,1.9.6,2.89,2.71,2.88q14.78-.12,29.55-.07c2.68,0,3.39-1.47,3.35-3.84C431.11,521.19,431.15,516.34,431.15,511.48Zm-156.86,0c0-4.86-.08-9.71,0-14.57.06-2.74-1-3.82-3.77-3.8q-13.92.15-27.85,0c-3,0-4,1.18-4,4.08.1,9.42.14,18.85,0,28.27-.06,3.39,1.26,4.5,4.54,4.48,9-.08,18,0,27,.15,2.86,0,4.17-1,4.08-4C274.19,521.2,274.29,516.34,274.29,511.49ZM513.11,389.16c0,5,.09,10,0,15-.07,2.77,1,3.8,3.79,3.77,9.27-.09,18.54-.1,27.81,0,3,0,4-1.07,4-4-.12-9.41-.14-18.82,0-28.23,0-3.31-1.09-4.6-4.45-4.55q-13.9.19-27.81,0c-2.77,0-3.42,1.05-3.36,3.52C513.19,379.46,513.11,384.31,513.11,389.16Zm-196.24,0c0,4.85.1,9.71,0,14.56-.08,2.83.75,4.2,3.85,4.15q13.92-.18,27.85,0c3,0,4.06-1.12,4-4-.09-9.43-.12-18.86,0-28.28.05-3.39-1.34-4.51-4.6-4.47-9.28.11-18.56.12-27.84-.05-2.82-.05-3.37,1.12-3.31,3.56C317,379.49,316.87,384.35,316.87,389.21Zm349.3,122.72c0-4.86-.13-9.71,0-14.56.11-3.12-1-4.32-4.19-4.27q-13.49.22-27,0c-3.3-.06-4.57,1-4.5,4.39.18,9.27.2,18.55,0,27.82-.08,3.67,1.4,4.69,4.8,4.63,9-.13,18-.17,27,.06,3.16.08,4-1.08,3.89-4C666.06,521.35,666.17,516.64,666.17,511.93ZM748.1,389.41c0,4.85.09,9.71,0,14.56-.07,2.62.7,4,3.6,3.94q14.13-.15,28.26,0c2.78,0,3.8-1.11,3.78-3.82q-.12-14.55,0-29.11c0-2.75-1.18-3.84-3.86-3.83-9.28.06-18.56.08-27.83,0-3,0-4,1.25-3.94,4.14C748.22,380,748.11,384.7,748.1,389.41Zm0,407.28c0,5,.07,10,0,15-.05,2.54,1,3.66,3.52,3.65q14.13-.06,28.26,0c2.71,0,3.86-1.09,3.84-3.83q-.09-14.57,0-29.12c0-2.74-1.06-3.82-3.81-3.79q-14.13.12-28.26,0c-2.53,0-3.62.93-3.56,3.53C748.19,787,748.11,791.84,748.11,796.69ZM470,103.75c0-4.85-.1-9.7,0-14.55.08-2.91-1-4.07-4-4q-13.47.18-27,0c-3.18,0-4.26,1.2-4.26,4.28,0,9.7-.12,19.4-.26,29.09,0,2.63.92,3.94,3.75,3.92,9.27-.09,18.55-.11,27.82,0,3.07,0,4-1.35,3.91-4.16C469.89,113.46,470,108.6,470,103.75ZM705.5,797.21c0-4.84-.11-9.7,0-14.54.09-2.88-.88-4.14-3.91-4.1-9.27.12-18.54.1-27.81,0-2.68,0-3.89.9-3.87,3.71q.13,14.55,0,29.09c0,2.66.9,4,3.7,3.94q14.11-.11,28.24,0c2.86,0,3.68-1.4,3.63-4C705.42,806.63,705.49,801.92,705.5,797.21Zm-74.88-.76c0,4.85.12,9.7,0,14.55-.1,3.08,1,4.4,4.16,4.36,9.13-.12,18.27-.1,27.4,0,2.89,0,4.1-1.05,4.07-4q-.15-14.34,0-28.68c0-2.92-1-4.1-4-4.06-9.28.11-18.55.09-27.83,0-2.7,0-3.9.91-3.82,3.73C630.72,787,630.62,791.74,630.62,796.45Zm-39.37.42c0,4.71.13,9.42,0,14.12-.11,3.07.93,4.41,4.15,4.37,9.13-.12,18.26-.09,27.4,0,2.87,0,4.14-1.05,4.11-4q-.14-14.34,0-28.68c0-2.91-1-4.1-4-4.06q-13.9.17-27.82,0c-3.12,0-3.91,1.36-3.83,4.17C591.35,787.45,591.25,792.16,591.25,796.87Zm-78.14,0c0,4.71.11,9.42,0,14.12-.1,3,.94,4.42,4.15,4.38,9.13-.12,18.26-.1,27.38,0,2.89,0,4.1-1,4.07-4q-.17-14.34,0-28.67c0-2.88-.93-4.12-3.95-4.09q-13.9.18-27.81,0c-3.1,0-3.92,1.37-3.85,4.16C513.2,787.45,513.11,792.15,513.11,796.86Zm-39.36,0c0,4.86.08,9.71,0,14.56-.07,2.69.91,3.93,3.7,3.91q14.13-.11,28.26,0c2.84,0,3.66-1.39,3.65-4-.07-9.56-.09-19.13,0-28.69,0-2.9-1-4.1-4-4.06q-13.92.17-27.83,0c-3.11,0-3.92,1.36-3.83,4.17C473.84,787.44,473.74,792.15,473.75,796.86Zm-42.59.15c0-4.85-.09-9.71,0-14.56.06-2.68-.87-3.89-3.7-3.87q-14.13.15-28.25,0c-2.85,0-3.71,1.28-3.7,3.91.07,9.56.09,19.12,0,28.68,0,2.85,1,4.19,4,4.16q13.9-.12,27.82,0c3.07,0,3.94-1.42,3.87-4.22C431.08,806.43,431.16,801.72,431.16,797ZM117.43,511.82c0-4.85-.09-9.7,0-14.54.07-2.8-.73-4.21-3.84-4.17q-13.9.19-27.82,0c-3,0-4,1.21-3.93,4.09q.16,14.32,0,28.66c0,3,1.17,4.08,4.06,4,9.12-.08,18.25-.1,27.38,0,3.23,0,4.24-1.38,4.14-4.41C117.32,521,117.43,516.39,117.43,511.82Zm82-.49c0,4.85.1,9.7,0,14.55-.09,3,1.16,4.06,4.05,4q13.69-.13,27.39,0c2.83,0,4.17-.95,4.14-4q-.15-14.55,0-29.1c0-2.81-1.18-3.74-3.86-3.71-9.27.08-18.55.11-27.82,0-3,0-4,1.23-3.9,4.1C199.55,501.91,199.45,506.62,199.46,511.33ZM356.24,796.85c0,4.71.11,9.42,0,14.13-.1,3.06.94,4.42,4.16,4.38,9.13-.12,18.27-.1,27.4,0,2.87,0,4.14-1,4.11-4q-.15-14.36,0-28.69c0-2.9-1-4.11-4-4.07q-13.92.17-27.84,0c-3.08,0-3.95,1.32-3.87,4.15C356.34,787.43,356.24,792.14,356.24,796.85Zm-39.37-.41c0,4.85.13,9.72,0,14.57-.11,3.09,1,4.39,4.16,4.35,9.14-.12,18.28-.09,27.42,0,2.86,0,4.17-1,4.15-4q-.13-14.36,0-28.71c0-2.92-1.06-4.08-4-4-9.28.1-18.57.12-27.85,0-3.11,0-3.94,1.33-3.85,4.16C317,787.29,316.87,791.87,316.87,796.44Zm-42.58.27c0-4.85-.07-9.7,0-14.55.05-2.55-1-3.58-3.54-3.56q-14.34.09-28.66,0c-2.35,0-3.35,1-3.34,3.33q.06,15,0,29.95c0,2.31,1,3.42,3.33,3.41,9.55,0,19.1,0,28.66,0,2.54,0,3.57-1.13,3.54-3.64C274.23,806.69,274.28,801.7,274.29,796.71Zm-156.86.15c0-4.71-.09-9.41,0-14.11.07-2.8-.74-4.21-3.85-4.17q-13.89.18-27.8,0c-3,0-4,1.22-3.93,4.09q.15,14.33,0,28.66c0,3,1.17,4,4.06,4,9.12-.08,18.25-.11,27.37,0,3.22,0,4.25-1.33,4.15-4.38C117.32,806.27,117.43,801.56,117.43,796.86ZM748.1,756.63c0,4.71.12,9.42,0,14.13-.09,2.88.84,4.14,3.89,4.1q13.92-.2,27.84,0c3,0,4-1.27,3.93-4.12q-.13-14.13,0-28.26c0-3-1-4.45-4.17-4.41q-13.69.16-27.41,0c-3.27,0-4.18,1.43-4.08,4.44C748.22,747.2,748.1,751.92,748.1,756.63ZM81.92,266.71c0,4.85.09,9.7,0,14.55-.07,2.79.76,4.25,3.85,4.22q13.91-.15,27.82,0c3,0,3.93-1.31,3.91-4.15-.1-9.56-.12-19.12,0-28.68,0-3-1.18-4-4.07-4-9.13.09-18.26.12-27.39,0-3.23-.05-4.24,1.32-4.14,4.37C82,257.58,81.92,262.15,81.92,266.71ZM705.49,756.93c0-5-.07-10,0-15,.05-2.72-1-3.9-3.77-3.88-9.41.06-18.83,0-28.24,0-2.53,0-3.56,1.14-3.55,3.65q.07,14.76,0,29.52c0,2.55,1,3.58,3.57,3.56,9.41-.06,18.82-.08,28.23,0,2.77,0,3.84-1.05,3.77-3.79C705.4,766.35,705.49,761.64,705.49,756.93Zm-74.87-.36c0,4.85.06,9.7,0,14.55,0,2.44.71,3.73,3.4,3.71q14.34-.11,28.68,0c2.6,0,3.53-1.11,3.51-3.62-.06-9.7-.08-19.41,0-29.11,0-3-1.2-4.06-4.08-4-9.13.08-18.27.1-27.4,0-3.22,0-4.25,1.33-4.15,4.39C630.73,747.14,630.62,751.86,630.62,756.57Zm-3.78.26c0-4.71-.11-9.42,0-14.13.11-3.21-1-4.7-4.39-4.65-9,.14-18,.11-27,0-3.06,0-4.37,1-4.32,4.21q.21,14.34,0,28.68c-.05,3.07,1.23,3.94,4.09,3.9,9.13-.1,18.27-.13,27.4,0,3.23,0,4.28-1.27,4.18-4.33C626.73,766,626.84,761.4,626.84,756.83ZM238.79,267.07c0,4.85.08,9.71,0,14.55-.06,2.74,1,3.87,3.77,3.85,9.42-.08,18.84-.07,28.25,0,2.56,0,3.55-1.11,3.53-3.62q-.09-14.77,0-29.54c0-2.53-1-3.62-3.54-3.61q-14.13.07-28.25,0c-2.76,0-3.83,1.13-3.77,3.85C238.86,257.37,238.79,262.22,238.79,267.07Zm309.84,489.7c0-4.85-.09-9.71,0-14.55.08-2.87-.95-4.18-3.94-4.15-9.28.09-18.55.07-27.82,0-2.7,0-3.85,1.06-3.83,3.82.08,9.7.11,19.4,0,29.1,0,3.12,1.38,3.87,4.17,3.84q13.69-.15,27.39,0c2.91,0,4.14-1,4-4C548.51,766.18,548.63,761.47,548.63,756.77ZM316.87,267.08c0,4.7.13,9.4,0,14.1-.12,3.1,1,4.36,4.16,4.31q13.67-.19,27.35,0c3.16,0,4.26-1.25,4.23-4.33q-.17-14.1,0-28.21c0-3.09-1.1-4.34-4.25-4.3q-13.68.18-27.35,0c-3.22,0-4.26,1.25-4.14,4.33C317,257.67,316.87,262.38,316.87,267.08Zm75,.24c0-4.85-.1-9.71,0-14.56.08-2.91-1-4.13-4-4.1-9.28.1-18.56.08-27.84,0-2.71,0-3.85,1-3.83,3.8q.14,14.57,0,29.13c0,2.71,1,3.89,3.75,3.87q13.92-.11,27.85,0c2.9,0,4.15-1,4.06-4C391.73,276.75,391.84,272,391.84,267.32Zm39.32,0c0-5-.06-10,0-15,0-2.51-1-3.64-3.54-3.63q-14.13.07-28.26,0c-2.72,0-3.85,1.08-3.83,3.82q.1,14.56,0,29.12c0,2.72,1.06,3.87,3.8,3.85q14.13-.09,28.26,0c2.54,0,3.61-1.06,3.56-3.6C431.09,277,431.15,272.15,431.16,267.3Zm42.58,489.31c0,4.71.11,9.43,0,14.13-.09,2.86.82,4.16,3.89,4.12,9.27-.13,18.55-.1,27.83,0,2.64,0,3.94-.81,3.91-3.67q-.13-14.56,0-29.12c0-3-1.3-4-4.14-4-9.13.08-18.27.11-27.4,0-3.27,0-4.2,1.42-4.1,4.43C473.86,747.19,473.74,751.9,473.74,756.61ZM509.3,266.69c0-4.57-.11-9.14,0-13.7.11-3.09-1-4.39-4.19-4.34-9.14.12-18.28.1-27.41,0-2.91,0-4.08,1-4,4q.18,14.34,0,28.69c0,2.89.92,4.16,3.93,4.12,9.28-.1,18.56-.08,27.84,0,2.7,0,3.9-1,3.84-3.79C509.22,276.69,509.3,271.69,509.3,266.69Zm39.33.81c0-5-.08-10,0-15,.06-2.72-1-3.86-3.76-3.84-9.42.08-18.84.06-28.26,0-2.54,0-3.57,1.08-3.55,3.62q.09,14.76,0,29.54c0,2.53,1,3.62,3.55,3.61,9.42-.05,18.84-.06,28.26,0,2.75,0,3.83-1.11,3.77-3.84C548.55,276.92,548.63,272.21,548.63,267.5ZM391.84,756.58c0-4.71-.11-9.43,0-14.13.09-3.05-1-4.44-4.17-4.4-9.14.12-18.28.1-27.42,0-2.87,0-4.12,1-4.09,4q.17,14.34,0,28.7c0,2.89.91,4.12,3.94,4.08q13.92-.2,27.84,0c3.07,0,4-1.3,3.89-4.13C391.74,766,391.84,761.29,391.84,756.58ZM591.25,266.85c0,5,.07,10,0,15-.05,2.54,1,3.62,3.53,3.61q14.13-.07,28.27,0c2.73,0,3.84-1.11,3.82-3.84q-.09-14.56,0-29.13c0-2.73-1.11-3.85-3.83-3.83q-14.13.11-28.27,0c-2.56,0-3.58,1.07-3.52,3.61C591.34,257.14,591.27,262,591.25,266.85Zm39.37-.11c0,4.86.09,9.71,0,14.56-.08,2.84.8,4.22,3.87,4.18,9.28-.1,18.56-.08,27.84,0,2.64,0,3.93-.89,3.9-3.72-.09-9.86-.07-19.71,0-29.56,0-2.62-1.21-3.52-3.67-3.5-9.42,0-18.84.06-28.27,0-2.84,0-3.72,1.28-3.65,3.94C630.7,257.32,630.62,262,630.62,266.74Zm74.87.47c0-4.85-.1-9.7,0-14.55.1-3-1.15-4-4-4q-13.69.14-27.39,0c-2.82,0-4.19.86-4.15,3.92.11,9.7.09,19.41,0,29.11,0,2.78,1.15,3.8,3.84,3.78,9.27-.07,18.55-.09,27.82,0,3,0,4-1.29,3.92-4.14C705.4,276.63,705.49,271.92,705.49,267.21ZM316.87,756.35c0,4.86.09,9.72,0,14.57-.07,2.65.74,4,3.63,3.92q14.14-.15,28.28,0c2.77,0,3.82-1.11,3.8-3.82-.07-9.57-.09-19.15,0-28.71,0-3.19-1.31-4.28-4.37-4.25-9,.1-18,.13-27,0-3.42-.06-4.53,1.32-4.39,4.59C317,747.21,316.87,751.78,316.87,756.35ZM748.12,267.06c0,5,0,10,0,15,0,2.34.95,3.39,3.3,3.38q14.34,0,28.7,0c2.52,0,3.61-1.07,3.59-3.61q-.08-14.77,0-29.55c0-2.53-1.07-3.62-3.59-3.6-9.42,0-18.85.05-28.27,0-2.75,0-3.83,1.07-3.76,3.83C748.21,257.35,748.11,262.21,748.12,267.06ZM274.29,756.66c0-4.85-.09-9.7,0-14.55.08-3-1.15-4.07-4.05-4q-13.69.12-27.38,0c-2.81,0-4.18.91-4.15,4q.17,14.54,0,29.08c0,2.8,1.14,3.76,3.84,3.73,9.27-.08,18.54-.11,27.8,0,3,0,4-1.21,3.93-4.09C274.19,766.07,274.3,761.36,274.29,756.66Zm-192.36-.25c0,4.85.07,9.7,0,14.54-.06,2.66.83,3.92,3.67,3.89,9.41-.09,18.83-.07,28.24,0,2.47,0,3.66-.85,3.64-3.47q-.11-14.76,0-29.52c0-2.79-1.22-3.78-3.88-3.76-9.26.06-18.53.08-27.8,0-3.06,0-3.94,1.43-3.88,4.22C82,747,81.92,751.71,81.93,756.41Zm666.17-41c0,4.71.13,9.42,0,14.13-.11,3,.86,4.45,4.11,4.41,9.14-.12,18.28-.09,27.41,0,2.85,0,4.16-1,4.14-4q-.15-14.35,0-28.7c0-2.87-.94-4.15-4-4.11q-13.92.17-27.84,0c-3.1-.05-3.94,1.32-3.85,4.15C748.21,706,748.1,710.68,748.1,715.4ZM156.42,307.81h.08c0-4.85-.06-9.71,0-14.56,0-2.81-.94-4.18-4-4.14-9.14.12-18.28.1-27.42,0-2.67,0-3.92.87-3.9,3.7.09,10,.07,20,0,30,0,2.5.93,3.61,3.53,3.59q14.14-.12,28.28,0c2.59,0,3.51-1,3.42-3.6C156.3,317.81,156.42,312.81,156.42,307.81Zm549.07,408c0-5-.09-10,0-15,.07-2.79-1.11-3.78-3.82-3.75-9.28.08-18.55.1-27.82,0-3,0-4,1.2-4,4.08q.17,14.34,0,28.68c0,3,1.15,4.08,4,4.06,9.13-.08,18.26-.11,27.39,0,3.22,0,4.26-1.34,4.16-4.39C705.38,725,705.5,720.42,705.49,715.85ZM630.61,715c0,4.85.12,9.71,0,14.56-.1,3.06.93,4.42,4.15,4.38,9.13-.12,18.27-.1,27.41,0,2.89,0,4.1-1.07,4.07-4q-.15-14.34,0-28.69c0-2.9-1-4.12-4-4.08-9.27.11-18.56.09-27.84,0-2.7,0-3.9.92-3.82,3.74C630.72,705.57,630.62,710.28,630.61,715ZM783.69,144.57c0-4.71-.12-9.42,0-14.13.09-3.08-1-4.38-4.2-4.34-9.14.13-18.28.11-27.41,0-2.88,0-4.1.92-4.06,4q.2,14.34,0,28.7c0,2.87.87,4.17,3.9,4.14q13.9-.15,27.83,0c3.06,0,4-1.38,3.91-4.19C783.6,154,783.68,149.28,783.69,144.57ZM591.25,715c0,4.85.12,9.71,0,14.56-.1,3.05.91,4.42,4.14,4.38,9.14-.12,18.27-.09,27.41,0,2.88,0,4.13-1.09,4.11-4q-.14-14.36,0-28.7c0-2.9-1-4.1-4-4.07-9.28.11-18.56.09-27.84,0-2.71,0-3.89.93-3.81,3.74C591.36,705.57,591.26,710.29,591.25,715Zm-42.63.75h0c0-4.85-.11-9.71,0-14.55.09-2.89-.92-4.13-3.93-4.09-9.28.11-18.56.09-27.83,0-2.7,0-3.86,1-3.83,3.75q.13,14.55,0,29.11c0,2.66.93,3.95,3.72,3.93q14.12-.09,28.25,0c2.5,0,3.64-1,3.6-3.6C548.57,725.45,548.62,720.6,548.62,715.75ZM705.49,144.9c0-5-.09-10,0-15,.07-2.76-1-3.82-3.79-3.8q-13.9.12-27.81,0c-2.58,0-4,.73-4,3.63.09,9.84.07,19.69,0,29.53,0,2.55,1.06,3.6,3.58,3.59,9.42,0,18.83-.06,28.25,0,2.78,0,3.79-1.19,3.73-3.88C705.41,154.31,705.49,149.61,705.49,144.9Zm-74.87-.38c0,4.85.09,9.71,0,14.56-.07,2.76,1,3.84,3.78,3.82,9.42-.07,18.84-.06,28.26,0,2.55,0,3.56-1.11,3.55-3.63q-.09-14.77,0-29.55c0-2.56-1.07-3.57-3.59-3.56-9.42,0-18.84.07-28.26,0-2.77,0-3.82,1.1-3.75,3.84C630.71,134.81,630.62,139.66,630.62,144.52Zm-313.74,367c0,4.84.08,9.69,0,14.53-.07,2.74,1.05,3.86,3.77,3.84q14.1-.09,28.21,0c2.78,0,3.74-1.34,3.73-4q-.09-14.53,0-29.06c0-2.77-1.16-3.77-3.86-3.74q-14.1.12-28.2,0c-2.85,0-3.72,1.21-3.65,3.88C317,501.84,316.87,506.68,316.88,511.53ZM591.26,144.3c0,5,0,10,0,15,0,2.2.63,3.58,3.11,3.58q14.55,0,29.12,0c2.32,0,3.36-1.11,3.35-3.41q0-15,0-30c0-2.34-1.09-3.34-3.4-3.33-9.56,0-19.13,0-28.69,0-2.57,0-3.57,1.07-3.52,3.61C591.33,134.59,591.25,139.45,591.26,144.3ZM473.74,715.15c0,4.86.1,9.72,0,14.57-.08,2.82.8,4.24,3.86,4.21,9.28-.09,18.56-.07,27.84,0,2.64,0,3.94-.95,3.91-3.76q-.1-14.77,0-29.56c0-2.63-1.22-3.48-3.68-3.47-9.42.06-18.84.08-28.27,0-2.85,0-3.73,1.23-3.66,3.9C473.83,705.73,473.75,710.44,473.74,715.15Zm-78.17,0c0,4.85.11,9.71,0,14.56-.1,3.16,1.24,4.3,4.32,4.27,9.13-.11,18.27-.08,27.4,0,2.62,0,3.95-.89,3.93-3.73q-.12-14.78,0-29.54c0-2.6-1.12-3.53-3.62-3.52-9.42.06-18.84.08-28.26,0-2.79,0-3.81,1.16-3.76,3.86C395.64,705.69,395.57,710.4,395.57,715.11ZM548.64,144.86c0-4.85-.1-9.7,0-14.55.07-2.8-.74-4.23-3.84-4.2q-13.91.17-27.82,0c-3,0-4,1.25-3.94,4.12q.15,14.34,0,28.68c0,3,1.19,4,4.07,4,9.13-.09,18.27-.12,27.4,0,3.23.05,4.24-1.31,4.14-4.37C548.52,154,548.64,149.43,548.64,144.86Zm-74.89-.32c0,4.86.09,9.71,0,14.56-.07,2.79,1.1,3.82,3.81,3.8q13.92-.1,27.83,0c2.6,0,4-.79,4-3.66q-.12-14.78,0-29.55c0-2.59-1.14-3.55-3.63-3.54-9.42,0-18.84.07-28.26,0-2.8,0-3.79,1.15-3.72,3.86C473.84,134.83,473.75,139.69,473.75,144.54Zm-81.91,571c0-4.85-.09-9.71,0-14.56.06-2.73-1-3.85-3.77-3.83q-13.92.14-27.85,0c-2.91,0-4.09,1-4.05,4q.18,14.34,0,28.7c0,2.9,1,4.15,4,4.13,9.28-.09,18.57-.07,27.85,0,2.7,0,3.89-1.08,3.83-3.84C391.76,725.23,391.83,720.37,391.84,715.51Zm-39.31.14c0-4.84-.09-9.69,0-14.53.08-2.94-1.14-4-4.06-4q-13.87.15-27.77,0c-3,0-3.94,1.23-3.9,4.1q.17,14.31,0,28.63c0,2.93,1,4.11,4,4.09q13.89-.13,27.78,0c3,0,4-1.33,4-4.17C352.46,725.05,352.53,720.35,352.53,715.65Zm78.63-571.08c0-4.85-.08-9.7,0-14.55.06-2.68-.88-3.92-3.7-3.9q-14.13.13-28.26,0c-2.85,0-3.7,1.33-3.68,4,.06,9.56.08,19.12,0,28.68,0,2.86,1,4.18,4,4.15q13.9-.14,27.83,0c3.08,0,3.93-1.41,3.86-4.21C431.08,154,431.16,149.28,431.16,144.57ZM238.79,715.41c0,4.7.1,9.41,0,14.12-.09,3,.9,4.45,4.14,4.41,9.13-.12,18.26-.1,27.39,0,2.9,0,4.08-1.09,4.05-4q-.15-14.32,0-28.67c0-2.86-.88-4.14-3.92-4.1q-13.91.18-27.81,0c-3.11,0-3.92,1.38-3.85,4.18C238.88,706,238.79,710.7,238.79,715.41Zm-3.82.35c0-4.85-.09-9.71,0-14.55.08-2.88-.93-4.14-3.94-4.1-9.28.11-18.55.09-27.82,0-2.72,0-3.85,1-3.83,3.75.09,9.7.11,19.4,0,29.1,0,3,1.29,4,4.13,4q13.69-.12,27.39,0c2.89,0,4.15-1.08,4.06-4C234.87,725.17,235,720.46,235,715.76ZM117.43,348.89c0-5-.08-10,0-15,.06-2.78-1.12-3.8-3.83-3.78q-13.9.12-27.81,0c-3,0-4,1.27-3.93,4.13q.15,14.33,0,28.67c0,3,1.15,4.06,4,4,9.13-.09,18.26-.11,27.39,0,3.24,0,4.25-1.34,4.14-4.38C117.32,358,117.43,353.46,117.43,348.89Zm0,367c0-5-.09-10,0-15,.07-2.78-1.11-3.77-3.82-3.75-9.27.08-18.54.1-27.81,0-3,0-4,1.22-4,4.1q.16,14.32,0,28.67c0,3,1.16,4.07,4.06,4,9.12-.08,18.25-.1,27.38,0,3.23,0,4.24-1.37,4.14-4.4C117.32,725,117.43,720.41,117.43,715.85Zm0-652.59c0-5,0-10,0-15,0-2.51-1-3.64-3.53-3.62-9.56.06-19.11,0-28.67,0-2.34,0-3.34,1.06-3.33,3.38q.06,15,0,30c0,2.32,1,3.41,3.31,3.4q14.34,0,28.67,0c2.55,0,3.58-1.1,3.54-3.62C117.36,73,117.42,68.1,117.42,63.26ZM748.11,633.78c0,5,.07,10,0,15-.05,2.55,1,3.62,3.53,3.61,9.57,0,19.14,0,28.71,0,2.32,0,3.37-1.06,3.36-3.38q0-15,0-30c0-2.32-1-3.37-3.37-3.37q-14.35,0-28.7,0c-2.55,0-3.59,1-3.53,3.6C748.18,624.07,748.11,628.92,748.11,633.78ZM274.29,348.93c0-5-.08-10,0-15,.06-2.75-1.05-3.83-3.79-3.81q-13.9.12-27.82,0c-2.6,0-4,.79-4,3.67q.12,14.76,0,29.53c0,2.55,1.07,3.6,3.58,3.59,9.41,0,18.83-.05,28.25,0,2.78,0,3.79-1.21,3.72-3.9C274.22,358.35,274.29,353.64,274.29,348.93ZM670,634c0,4.85.07,9.71,0,14.56-.06,2.71,1,3.88,3.76,3.86q14.13-.1,28.25,0c2.56,0,3.57-1.09,3.55-3.61q-.09-14.78,0-29.54c0-2.52-1-3.65-3.52-3.63q-14.13.07-28.26,0c-2.74,0-3.85,1.09-3.78,3.83C670.06,624.28,670,629.13,670,634ZM316.87,348.55c0,4.7.13,9.41,0,14.11-.12,3.11,1,4.35,4.18,4.31,9.12-.12,18.23-.09,27.35,0,2.79,0,4.23-.89,4.2-3.93q-.13-14.53,0-29.06c0-2.72-1.09-3.84-3.82-3.82q-14.1.11-28.21,0c-2.8,0-3.75,1.19-3.68,3.88C317,338.86,316.87,343.71,316.87,348.55Zm39.38-.21c0,5,.06,10,0,15,0,2.55,1.06,3.61,3.58,3.6q14.15-.07,28.28,0c2.39,0,3.78-.76,3.77-3.43q-.09-15,0-30c0-2.36-1.06-3.35-3.37-3.34q-14.36,0-28.71,0c-2.56,0-3.58,1.08-3.54,3.61C356.31,338.63,356.25,343.49,356.25,348.34Zm74.91.44c0-5-.07-10,0-15,.05-2.52-.93-3.65-3.51-3.64q-14.13.09-28.27,0c-2.7,0-3.87,1-3.85,3.79q.1,14.56,0,29.12c0,2.69,1,3.91,3.77,3.89q14.15-.09,28.27,0c2.52,0,3.63-1.05,3.59-3.6C431.09,358.49,431.15,353.63,431.16,348.78Zm235,285.63c0-5-.08-10,0-15,.06-2.75-1.06-3.85-3.79-3.83-9.43.07-18.85.06-28.28,0-2.55,0-3.54,1.08-3.53,3.62q.1,14.78,0,29.55c0,2.56,1,3.62,3.55,3.61q14.15-.07,28.27,0c2.76,0,3.84-1.13,3.78-3.85C666.08,643.84,666.16,639.12,666.16,634.41Zm-192.41-286c0,5,.07,10,0,15-.05,2.57,1.07,3.59,3.58,3.58q14.13-.07,28.27,0c2.78,0,3.78-1.22,3.76-3.9q-.12-14.57,0-29.13c0-2.78-1.16-3.8-3.85-3.78-9.28.07-18.56.1-27.85,0-3,0-4,1.2-3.92,4.1C473.86,338.94,473.75,343.65,473.75,348.37Zm74.88.3c0-4.85-.07-9.7,0-14.55.05-2.6-.73-4-3.62-4q-14.13.14-28.26,0c-2.81,0-3.72,1.23-3.7,3.91q.12,14.55,0,29.11c0,2.78,1.16,3.8,3.84,3.78,9.28-.06,18.56-.07,27.83,0,3,0,4-1.31,3.92-4.16C548.54,358.09,548.63,353.38,548.63,348.67ZM591.26,634c0,4.85,0,9.71,0,14.56,0,2.4.68,3.8,3.36,3.78q14.35-.06,28.7,0c2.55,0,3.57-1.16,3.56-3.65q-.08-14.78,0-29.55c0-2.56-1.14-3.58-3.63-3.57-9.42,0-18.85.06-28.27,0-2.8,0-3.78,1.18-3.72,3.88C591.34,624.33,591.26,629.18,591.26,634Zm0-285.73c0,5,.07,10,0,15-.05,2.53,1,3.65,3.52,3.64q14.13-.07,28.26,0c2.72,0,3.87-1.11,3.85-3.84q-.11-14.57,0-29.12c0-2.72-1.07-3.87-3.81-3.84q-14.13.11-28.27,0c-2.55,0-3.6,1-3.55,3.59C591.33,338.6,591.26,343.45,591.26,348.31Zm74.9.62c0-5-.08-10,0-15,.06-2.76-1.09-3.82-3.81-3.8q-14.13.12-28.27,0c-2.57,0-3.53,1.1-3.52,3.63q.1,14.78,0,29.55c0,2.56,1,3.61,3.56,3.6,9.42,0,18.85-.05,28.27,0,2.76,0,3.82-1.17,3.76-3.88C666.08,358.36,666.16,353.65,666.16,348.93Zm3.82-.42c0,4.85.07,9.7,0,14.55-.06,2.7,1,3.9,3.75,3.88q14.13-.09,28.25,0c2.55,0,3.57-1.09,3.56-3.62q-.09-14.76,0-29.53c0-2.51-.93-3.65-3.51-3.64q-14.13.09-28.25,0c-2.74,0-3.87,1.06-3.8,3.81C670.06,338.8,670,343.66,670,348.51ZM548.64,634.26c0-4.85-.1-9.71,0-14.56.08-2.88-.95-4.15-3.95-4.12q-13.9.15-27.83,0c-2.71,0-3.83,1-3.81,3.8q.13,14.57,0,29.12c0,3.07,1.36,3.93,4.16,3.9q13.71-.12,27.4,0c2.91,0,4.14-1,4-4C548.53,643.68,548.63,639,548.64,634.26ZM748.1,348.48c0,4.71.13,9.43,0,14.13-.12,3.08.91,4.41,4.13,4.36,9.14-.12,18.28-.09,27.42,0,2.88,0,4.13-1,4.11-4q-.15-14.35,0-28.7c0-2.89-1-4.14-4-4.11-9.28.1-18.56.08-27.85,0-2.7,0-3.89,1-3.81,3.77C748.21,338.76,748.11,343.62,748.1,348.48ZM473.74,511.36c0,4.71.12,9.42,0,14.13-.1,3,.83,4.48,4.09,4.44,9.14-.12,18.28-.09,27.41,0,2.84,0,4.17-1,4.14-4q-.15-14.56,0-29.12c0-2.86-1.27-3.7-3.91-3.67-9.28.08-18.56.11-27.84,0-3.07,0-4,1.26-3.88,4.11C473.85,501.93,473.74,506.65,473.74,511.36ZM356.25,144.3c0,5,.06,10,0,15,0,2.56,1.06,3.61,3.58,3.6q14.35-.07,28.7,0c2.34,0,3.34-1.09,3.34-3.4q0-15,0-30c0-2.36-1.06-3.33-3.37-3.33-9.57,0-19.13,0-28.7,0-2.55,0-3.6,1-3.55,3.6C356.31,134.59,356.25,139.44,356.25,144.3Zm-39.37.24c0,4.84.09,9.69,0,14.53-.07,2.74,1,3.85,3.76,3.83q14.1-.1,28.2,0c2.77,0,3.77-1.25,3.75-3.91q-.09-14.52,0-29.06c0-2.73-1.13-3.81-3.84-3.79q-14.1.11-28.2,0c-2.83,0-3.74,1.22-3.67,3.89C317,134.85,316.87,139.7,316.88,144.54ZM473.74,633.69c0,4.86.1,9.72,0,14.57-.08,2.86.86,4.19,3.9,4.16,9.28-.11,18.56-.08,27.85,0,2.66,0,3.9-1,3.88-3.76q-.12-14.57,0-29.13c0-2.67-.91-3.94-3.72-3.91q-14.13.1-28.27,0c-2.88,0-3.69,1.34-3.63,4C473.83,624.27,473.74,629,473.74,633.69Zm-78.17.26c0,4.86.07,9.71,0,14.56-.05,2.69,1,3.91,3.77,3.89q14.13-.1,28.27,0c2.52,0,3.6-1,3.59-3.58q-.1-14.77,0-29.55c0-2.88-1.33-3.69-3.93-3.67-9.14.07-18.28.1-27.42,0-3.09,0-4.41,1.07-4.3,4.25C395.69,624.52,395.57,629.24,395.57,634Zm-3.74.42c0-5-.05-10,0-15,0-2.42-.76-3.78-3.41-3.76q-14.35.06-28.72,0c-2.57,0-3.52,1.14-3.51,3.65q.11,14.78,0,29.56c0,2.59,1.11,3.58,3.61,3.57q14.15-.07,28.28,0c2.78,0,3.81-1.19,3.75-3.89C391.76,643.8,391.84,639.09,391.83,634.37ZM117.43,389.65c0-4.7-.11-9.41,0-14.11.1-3-.9-4.45-4.13-4.41-9.13.11-18.26.09-27.38,0-2.88,0-4.11,1.06-4.07,4q.15,14.34,0,28.66c0,2.87.88,4.13,3.92,4.09q13.91-.18,27.81,0c3.1,0,3.93-1.34,3.85-4.15C117.34,399.07,117.43,394.36,117.43,389.65ZM316.87,634c0,4.84.09,9.69,0,14.53-.07,2.75,1,3.85,3.75,3.83q14.12-.1,28.22,0c2.78,0,3.76-1.26,3.74-3.91q-.09-14.54,0-29.07c0-2.73-1.13-3.83-3.84-3.81q-14.1.09-28.21,0c-2.83,0-3.73,1.25-3.66,3.92C317,624.35,316.87,629.19,316.87,634Zm-42.57.26c0-4.85-.1-9.7,0-14.55.08-2.83-.84-4.2-3.89-4.17-9.27.11-18.54.08-27.82,0-2.68,0-3.88,1-3.86,3.76q.12,14.55,0,29.1c0,2.64.85,4,3.68,3.95q14.13-.1,28.25,0c2.86,0,3.69-1.37,3.63-4C274.22,643.72,274.29,639,274.3,634.3ZM238.79,389.51c0,4.85.08,9.7,0,14.55-.06,2.69.9,3.87,3.71,3.84q14.11-.13,28.24,0c2.89,0,3.65-1.32,3.63-3.93q-.12-14.34,0-28.66c0-2.83-.9-4.21-3.92-4.18-9.27.09-18.54.07-27.81,0-2.68,0-3.89,1.06-3.83,3.82C238.87,379.82,238.79,384.67,238.79,389.51ZM199.46,634c0,4.85.07,9.7,0,14.55-.06,2.7,1,3.9,3.74,3.87q13.91-.1,27.82,0c2.94,0,4-1.14,4-4.06q-.15-14.34,0-28.68c0-2.91-1-4.12-4-4.09q-13.92.15-27.82,0c-2.76,0-3.84,1.11-3.77,3.84C199.54,624.27,199.46,629.13,199.46,634Zm-117.53-.12c0,4.85.1,9.7,0,14.55-.09,3,1.17,4,4.06,4q13.69-.13,27.39,0c2.84,0,4.16-.9,4.13-3.94q-.16-14.55,0-29.1c0-2.79-1.15-3.8-3.84-3.78-9.27.07-18.54.09-27.82,0-3,0-4,1.3-3.91,4.15C82,624.44,81.92,629.15,81.93,633.86ZM238.79,63c0,4.7.11,9.41,0,14.12-.1,3,.89,4.43,4.13,4.38,9.13-.13,18.26-.1,27.39,0,2.89,0,4.1-1,4.06-4q-.16-14.32,0-28.67c0-2.84-.86-4.18-3.9-4.14q-13.9.15-27.81,0c-3.08,0-3.94,1.39-3.87,4.2C238.87,53.54,238.78,58.25,238.79,63Zm78.09-.32c0,5,.08,10,0,15-.07,2.73,1,3.86,3.74,3.84q14.1-.12,28.2,0c2.77,0,3.79-1.22,3.77-3.89q-.09-14.52,0-29.06c0-2.71-1.1-3.85-3.82-3.83q-14.1.1-28.21,0c-2.81,0-3.75,1.21-3.68,3.89C317,53.23,316.87,57.94,316.88,62.64Zm75,.51c0-4.71-.11-9.43,0-14.14.09-3-.89-4.43-4.15-4.38-9.13.13-18.28.1-27.41,0-2.85,0-4.16.89-4.12,3.94.12,9.57.1,19.14,0,28.7,0,2.84.86,4.2,3.9,4.17q13.92-.15,27.85,0c3,0,4-1.32,3.92-4.16C391.75,72.58,391.84,67.86,391.84,63.15ZM591.26,389.37c0,5,.07,10,0,15-.05,2.57,1,3.57,3.55,3.55,9.56-.07,19.12,0,28.68,0,2.33,0,3.38-1,3.38-3.33q-.06-15,0-30c0-2.31-1.08-3.4-3.38-3.4-9.56,0-19.12,0-28.68,0-2.55,0-3.57,1.13-3.52,3.65C591.32,379.67,591.26,384.52,591.26,389.37Zm74.91.29c0-4.71-.11-9.43,0-14.13.1-3-.94-4.44-4.16-4.4-9.13.11-18.26.09-27.4,0-2.88,0-4.1,1-4.06,4q.17,14.34,0,28.69c0,2.89.89,4.11,3.92,4.07q13.92-.18,27.83,0c3.09,0,4-1.31,3.88-4.14C666.07,399.08,666.17,394.37,666.17,389.66Zm39.32.06c0-4.85-.1-9.7,0-14.54.08-3-1.17-4.07-4.06-4q-13.69.12-27.38,0c-2.82,0-4.18.93-4.15,4q.15,14.55,0,29.09c0,2.81,1.16,3.74,3.85,3.71,9.27-.08,18.54-.1,27.81,0,3,0,4-1.2,3.92-4.08C705.39,399.14,705.5,394.43,705.49,389.72ZM395.58,63c0,4.85.07,9.7,0,14.56-.05,2.7,1,3.87,3.79,3.85,9.42-.07,18.84-.05,28.26,0,2.53,0,3.6-1,3.58-3.59q-.09-14.78,0-29.55c0-2.51-.95-3.64-3.53-3.63q-14.13.09-28.26,0c-2.71,0-3.9,1.05-3.84,3.81C395.65,53.31,395.58,58.16,395.58,63Zm78.17-.19c0,5,.07,10,0,15-.05,2.55,1,3.62,3.55,3.61,9.56-.06,19.13-.05,28.69,0,2.33,0,3.35-1.06,3.34-3.38q0-15,0-30c0-2.34-1-3.37-3.35-3.36-9.56,0-19.13,0-28.69,0-2.55,0-3.59,1.05-3.54,3.61C473.82,53.12,473.75,58,473.75,62.83Zm74.88.48c0-4.85-.09-9.7,0-14.55.08-2.87-.91-4.16-3.93-4.12-9.27.1-18.55.08-27.82,0-2.7,0-3.87,1-3.84,3.77q.13,14.55,0,29.11c0,2.68.92,3.93,3.72,3.91q14.12-.12,28.25,0c2.89,0,3.66-1.4,3.61-4C548.56,72.73,548.63,68,548.63,63.31ZM626.84,63c0-4.57-.16-9.15,0-13.7.17-3.62-1.34-4.72-4.79-4.66-8.85.16-17.7.13-26.55,0-3,0-4.4.83-4.35,4.12.16,9.57.13,19.13,0,28.7,0,3,1.15,4,4.06,4,9.13-.09,18.27-.11,27.41,0,3.2,0,4.29-1.3,4.2-4.36C626.74,72.39,626.84,67.68,626.84,63ZM117.43,430.05c0-4.71-.11-9.42,0-14.12.11-3.05-.88-4.42-4.13-4.37-9.13.13-18.26.11-27.39,0-2.9,0-4.1,1-4.07,4q.16,14.34,0,28.68c0,2.83.88,4.22,3.91,4.19,9.28-.09,18.55-.07,27.83,0,2.7,0,3.89-1.05,3.82-3.81C117.35,439.76,117.43,434.9,117.43,430.05ZM748.11,62.85c0,5,0,10,0,15,0,2.22.66,3.57,3.12,3.56q14.56,0,29.13,0c2.34,0,3.35-1.09,3.34-3.41q0-15,0-30c0-2.35-1.09-3.35-3.4-3.34-9.56,0-19.13,0-28.7,0-2.56,0-3.55,1.09-3.5,3.63C748.18,53.14,748.11,58,748.11,62.85Zm0,489.42c0,5,.07,10,0,15-.05,2.54.93,3.64,3.5,3.63q14.14-.09,28.28,0c2.72,0,3.87-1,3.85-3.8q-.12-14.57,0-29.14c0-2.7-1-3.91-3.78-3.89q-14.14.09-28.29,0c-2.52,0-3.6,1-3.55,3.61C748.18,542.56,748.11,547.42,748.11,552.27Zm-42.62.53c0-4.85-.09-9.71,0-14.56.07-2.83-.86-4.21-3.9-4.17-9.28.09-18.56.07-27.83,0-2.69,0-3.88,1-3.85,3.8q.12,14.55,0,29.11c0,2.66.87,3.94,3.69,3.92q14.13-.12,28.26,0c2.89,0,3.68-1.38,3.62-4C705.42,562.22,705.49,557.51,705.49,552.8ZM274.29,430.37c0-5-.08-10,0-15,.07-2.75-1.05-3.83-3.79-3.81q-13.9.12-27.83,0c-3,0-4,1.23-3.95,4.11q.15,14.34,0,28.68c0,2.94,1.1,4.1,4,4.07,9.14-.09,18.27-.11,27.4,0,3.22.05,4.27-1.3,4.17-4.37C274.18,439.51,274.3,434.94,274.29,430.37ZM630.62,552.61c0,4.71.1,9.42,0,14.13-.08,2.83.77,4.22,3.85,4.19q13.94-.18,27.85,0c3,0,4-1.29,3.92-4.14q-.15-14.35,0-28.71c0-3-1.24-4-4.1-4-9.14.08-18.28.1-27.42,0-3.26,0-4.21,1.38-4.11,4.41C630.73,543.17,630.61,547.89,630.62,552.61ZM316.87,430c0,4.85.09,9.7,0,14.54-.07,2.71,1,3.9,3.73,3.88q14.12-.1,28.22,0c2.77,0,3.77-1.27,3.76-3.92q-.09-14.53,0-29.08c0-2.71-1.08-3.85-3.81-3.83q-14.12.1-28.22,0c-2.82,0-3.75,1.2-3.68,3.89C317,420.31,316.87,425.16,316.87,430ZM591.26,552.46c0,4.86.08,9.72,0,14.57-.06,2.69.89,3.91,3.7,3.89q13.94-.13,27.85,0c2.89,0,4.13-1,4.1-4q-.15-14.34,0-28.7c0-2.87-1-4.16-4-4.14-9.28.09-18.57.07-27.85,0-2.72,0-3.87,1-3.8,3.82C591.35,542.75,591.26,547.61,591.26,552.46Zm-78.15.08c0,4.85.09,9.71,0,14.56-.06,2.76,1.06,3.83,3.8,3.81q13.9-.1,27.83,0c2.6,0,4-.76,3.95-3.65-.09-9.85-.07-19.7,0-29.55,0-2.54-1-3.63-3.56-3.61q-14.13.06-28.26,0c-2.77,0-3.81,1.19-3.75,3.89C513.19,542.83,513.11,547.69,513.11,552.54Zm-39.37.07c0,4.71.1,9.43,0,14.14-.09,2.82.76,4.22,3.85,4.18q13.92-.18,27.85,0c3,0,3.95-1.29,3.93-4.14q-.15-14.35,0-28.71c0-3-1.25-4-4.12-4-9.14.08-18.28.11-27.42,0-3.26,0-4.2,1.38-4.1,4.41C473.86,543.18,473.74,547.89,473.74,552.61ZM509.3,430c0-4.86-.08-9.72,0-14.57.06-2.74-1.05-3.85-3.79-3.83q-14.15.12-28.28,0c-2.55,0-3.56,1-3.54,3.6q.11,14.78,0,29.57c0,2.52,1,3.66,3.53,3.65q14.13-.07,28.28,0c2.74,0,3.85-1.14,3.79-3.86C509.23,439.69,509.3,434.84,509.3,430Zm39.33.37c0-5-.09-10,0-15,.07-2.79-1.12-3.8-3.82-3.78-9.28.07-18.56.09-27.84,0-3,0-4,1.26-3.93,4.13q.15,14.34,0,28.69c0,3,1.16,4.06,4.06,4,9.13-.09,18.27-.11,27.41,0,3.23,0,4.24-1.35,4.14-4.39C548.52,439.49,548.64,434.91,548.63,430.35ZM117.43,144.6c0-4.7-.12-9.42,0-14.12.11-3-.83-4.43-4.1-4.38-9.13.14-18.26.11-27.38,0-2.86,0-4.14.91-4.11,4,.12,9.55.1,19.11,0,28.67,0,2.81.84,4.21,3.89,4.18q13.91-.15,27.81,0c3.06,0,4-1.37,3.88-4.19C117.34,154,117.43,149.31,117.43,144.6ZM591.26,429.84c0,4.86.11,9.72,0,14.57-.09,3,1.15,4,4,4q13.71-.14,27.43,0c2.81,0,4.21-.93,4.18-4q-.14-14.57,0-29.14c0-2.79-1.23-3.77-3.9-3.75-9.29.07-18.57.09-27.85,0-3.05,0-4,1.28-3.9,4.14C591.36,420.41,591.25,425.13,591.26,429.84Zm74.9.54c0-5-.08-10,0-15,.07-2.77-1.09-3.82-3.81-3.8q-14.14.1-28.28,0c-2.58,0-3.52,1.11-3.51,3.63q.1,14.79,0,29.57c0,2.55,1,3.63,3.56,3.62,9.42,0,18.85-.06,28.28,0,2.76,0,3.81-1.2,3.75-3.9C666.09,439.81,666.16,435.09,666.16,430.38Zm3.82,0c0,4.71.07,9.43,0,14.13-.06,2.68.95,3.94,3.73,3.92q14.13-.09,28.26,0c2.54,0,3.58-1.1,3.57-3.63-.06-9.85-.08-19.7,0-29.55,0-2.88-1.33-3.67-3.94-3.65q-13.92.1-27.83,0c-2.73,0-3.87,1.05-3.8,3.81C670.06,420.38,670,425.38,670,430.37ZM391.84,552.83c0-4.71-.12-9.43.05-14.14.11-3.21-.89-4.7-4.36-4.64-9,.15-18,.12-27,0-3,0-4.38,1-4.34,4.21q.21,14.36,0,28.71c0,3.06,1.27,4,4.12,3.94,9.14-.09,18.28-.12,27.43,0,3.25.05,4.23-1.35,4.13-4.38C391.73,562,391.84,557.4,391.84,552.83ZM748.11,429.74c0,5,.07,10,0,15-.05,2.52.94,3.67,3.5,3.66q14.14-.06,28.29,0c2.71,0,3.85-1.11,3.83-3.85q-.09-14.56,0-29.14c0-2.71-1-3.87-3.79-3.85-9.43.08-18.86.06-28.29,0-2.53,0-3.61,1-3.55,3.58C748.18,420,748.11,424.88,748.11,429.74ZM316.87,552.45c0,4.85.09,9.7,0,14.54-.06,2.65.81,4,3.65,3.92q14.1-.12,28.21,0c2.71,0,3.87-1.06,3.85-3.8q-.1-14.54,0-29.07c0-2.63-.94-4-3.73-3.95q-14.11.09-28.22,0c-2.73,0-3.83,1.1-3.76,3.84C317,542.76,316.87,547.61,316.87,552.45Zm-78.08.09c0,4.86.08,9.71,0,14.56-.06,2.74,1.06,3.84,3.8,3.81,9.28-.07,18.55-.09,27.83,0,3,0,4-1.22,3.94-4.1q-.15-14.34,0-28.68c0-2.93-1.07-4.1-4-4.07-9.13.09-18.27.11-27.4,0-3.2,0-4.28,1.29-4.17,4.36C238.9,543.12,238.79,547.83,238.79,552.54Zm35.5-407.67c0-5-.08-10,0-15,.07-2.78-1.11-3.79-3.82-3.77-9.27.08-18.54.1-27.81,0-3,0-4,1.23-3.94,4.11q.15,14.34,0,28.67c0,3,1.16,4.05,4.06,4,9.13-.09,18.26-.11,27.39,0,3.23,0,4.25-1.31,4.15-4.37C274.18,154,274.29,149.44,274.29,144.87ZM626.83,511.46c0-4.85-.07-9.7,0-14.56.06-2.75-1.1-3.8-3.83-3.77q-14.13.12-28.26,0c-2.57,0-3.56,1-3.54,3.56q.1,14.78,0,29.55c0,2.53,1,3.66,3.54,3.65q14.13-.06,28.26,0c2.72,0,3.87-1.17,3.82-3.88C626.77,521.17,626.83,516.32,626.83,511.46ZM81.93,552.51c0,4.85.07,9.71,0,14.56-.06,2.71,1,3.87,3.76,3.84q14.13-.12,28.26,0c2.56,0,3.55-1.09,3.53-3.62q-.09-14.76,0-29.53c0-2.51-1-3.66-3.53-3.65-9.42,0-18.84,0-28.26,0-2.76,0-3.82,1.17-3.76,3.88C82,542.81,81.93,547.66,81.93,552.51ZM630.62,63c0,4.71.12,9.43,0,14.14-.11,3.07.91,4.4,4.14,4.35,9.14-.13,18.28-.1,27.41,0,2.88,0,4.12-1,4.08-4q-.16-14.34,0-28.69c0-2.88-.94-4.16-4-4.12q-13.92.15-27.84,0c-3.1,0-3.91,1.4-3.83,4.2C630.71,53.55,630.62,58.26,630.62,63ZM670,63c0,4.71.11,9.42,0,14.12-.1,3,.88,4.44,4.13,4.39,9.13-.13,18.26-.1,27.39,0,2.88,0,4.12-1,4.08-4q-.16-14.34,0-28.67c0-2.85-.88-4.18-3.9-4.15q-13.92.15-27.82,0c-3.08,0-3.94,1.39-3.87,4.19C670.06,53.54,670,58.25,670,63Zm0,448.44c0,4.71.11,9.42,0,14.12-.09,3,.93,4.45,4.15,4.41,9.13-.11,18.26-.09,27.39,0,2.89,0,4.09-1.07,4.06-4q-.15-14.34,0-28.67c0-2.88-.89-4.13-3.93-4.09q-13.9.18-27.81,0c-3.11,0-3.94,1.35-3.86,4.16C670.06,502,670,506.68,670,511.39ZM235,552.55c0-4.85-.07-9.7,0-14.54.06-2.66-.92-4-3.71-3.93q-13.9.1-27.8,0c-2.91,0-4.07,1.24-4,4.13q.12,14.53,0,29.08c0,2.54,1,3.62,3.54,3.6q14.11-.09,28.23,0c2.74,0,3.85-1.09,3.79-3.82C234.89,562.24,235,557.39,235,552.55Zm196.18,0h0c0-4.7-.11-9.4,0-14.1.1-3.06-.95-4.39-4.16-4.35-9.11.12-18.23.09-27.35,0-2.82,0-4.18.94-4.15,4q.13,14.52,0,29.05c0,2.73,1.06,3.85,3.8,3.83,9.4-.07,18.8-.11,28.2,0,2.94,0,3.67-1.3,3.62-3.89C431.08,562.2,431.15,557.36,431.15,552.51ZM43,592.89h.07c0,5,.07,10,0,15-.06,2.93,1.14,4,4.08,4,9.13-.11,18.27-.08,27.4,0,2.51,0,3.65-.88,3.63-3.48-.07-10.13,0-20.27,0-30.4,0-2.31-.92-3.39-3.3-3.38q-14.34.07-28.69,0c-2.38,0-3.27.86-3.19,3.31C43.09,582.9,43,587.9,43,592.89ZM235,389.26c0-5-.08-10,0-15,.05-2.43-.87-3.2-3.28-3.17-9.43.13-18.85.12-28.27.05-2.93,0-4.08,1.12-4,4.06.1,9.43.08,18.85,0,28.28,0,3,1,4.47,4.23,4.43q13.7-.17,27.41,0c3,0,4-1.24,3.93-4.1C234.88,399,235,394.11,235,389.26Zm235-81.55c0-4.85-.09-9.7,0-14.54.08-2.89-1-4.1-4-4.06-9,.12-18,.17-26.94,0-3.49-.07-4.49,1.46-4.45,4.59q.18,14.31.17,28.64c0,2.84,1,4.14,4,4.1q13.68-.18,27.37,0c3.12,0,3.91-1.4,3.85-4.17C469.89,317.4,470,312.56,470,307.71Zm-313.65-204h.09c0-5-.12-10,.05-15,.1-2.62-.84-3.62-3.41-3.6q-14.12.09-28.23,0c-2.54,0-3.61,1-3.6,3.54q.09,15,0,29.94c0,2.74,1.06,3.81,3.81,3.79,9.12-.09,18.25-.11,27.37,0,3.05,0,4-1.35,4-4.15C156.26,113.45,156.32,108.6,156.32,103.75Zm156.87,81.44h0c0-5-.1-10,0-15,.07-2.44-.41-3.66-3.24-3.62-9.42.14-18.84.12-28.27,0-2.88,0-3.69,1.29-3.68,3.91q.1,14.78,0,29.56c0,2.7,1,3.86,3.78,3.84q13.71-.14,27.42,0c3,0,4-1.35,4-4.17C313.12,194.9,313.19,190.05,313.19,185.19Zm121.53-.66h.11c0,5.14,0,10.28,0,15.42,0,2.6.87,4,3.72,4,9.28-.08,18.56-.06,27.83,0,2.54,0,3.63-1,3.61-3.56q-.08-15.21,0-30.41c0-2.34-1-3.32-3.37-3.31q-14.36.09-28.7,0c-2.37,0-3.29.93-3.22,3.34C434.81,174.82,434.72,179.68,434.72,184.53ZM156.44,226.61h-.12c0-4.85-.08-9.7,0-14.54.07-3-.82-4.48-4.12-4.43-9,.14-18,.12-26.95,0-2.89,0-4.11,1-4.08,4,.11,9.83.09,19.67,0,29.51,0,2.68.92,3.86,3.74,3.83q13.9-.17,27.8,0c3.16,0,3.84-1.44,3.74-4.24C156.32,236,156.44,231.31,156.44,226.61ZM313.2,103.9c0-4.86-.08-9.71,0-14.56.06-2.79-.82-4.21-3.9-4.17-9.14.12-18.27.1-27.41,0-2.72,0-3.86,1-3.84,3.75q.12,14.77,0,29.54c0,3,1.17,4,4.08,4q13.49-.17,27,0c2.92,0,4.17-1.06,4.11-4C313.11,113.6,313.19,108.75,313.2,103.9ZM709.29,470.61c0,5,.07,10,0,15,0,2.75,1.1,3.81,3.83,3.78,9.13-.08,18.27-.1,27.4,0,3.09,0,3.91-1.41,3.89-4.19-.07-9.7-.09-19.4,0-29.11,0-3-1.17-4-4.09-4-9,.11-18,.14-27,0-3.32-.06-4.19,1.41-4.1,4.39C709.38,461.19,709.28,465.9,709.29,470.61ZM195.67,103.78c0-5,0-10,0-15,0-2.5-1-3.62-3.55-3.6q-13.92.11-27.84,0c-2.81,0-3.79,1.19-3.77,3.86q.09,14.77,0,29.56c0,2.68,1,3.87,3.8,3.84,9.14-.08,18.28-.1,27.42,0,3,0,4-1.27,4-4.12C195.59,113.49,195.67,108.64,195.67,103.78ZM78.11,226.51c0-5-.08-10,0-15,.06-2.68-.9-3.89-3.72-3.86-9.14.1-18.28.08-27.41,0-2.65,0-4,.88-4,3.69q.08,15,0,30c0,2.48,1,3.62,3.58,3.6,9.28-.07,18.56-.09,27.84,0,2.88,0,3.72-1.24,3.67-3.88C78,236.22,78.11,231.37,78.11,226.51Zm-74.42-.3c0,4.86.07,9.71,0,14.57-.05,2.77.75,4.23,3.88,4.19,9.14-.13,18.28-.11,27.42,0,2.72,0,3.9-.95,3.88-3.73-.06-9.85-.07-19.71,0-29.57,0-3-1.17-4-4.09-4q-13.5.16-27,0c-2.91,0-4.18,1-4.11,4C3.78,216.49,3.69,221.35,3.69,226.21Zm583.8-122.45c0-4.85-.09-9.7,0-14.55.07-2.91-1-4.08-4-4q-13.47.17-27,0c-2.85,0-4.17.85-4.14,3.9.11,9.84.08,19.69,0,29.53,0,2.7,1,3.87,3.77,3.85,9.13-.09,18.26-.11,27.39,0,3.05,0,4-1.32,4-4.14C587.42,113.47,587.49,108.62,587.49,103.76ZM195.68,674.7c0-4.85-.09-9.71,0-14.56.08-2.94-1.1-4.06-4-4q-13.5.17-27,0c-2.83,0-4.21.86-4.18,3.91.09,9.84.07,19.69,0,29.54,0,2.72,1.09,3.83,3.84,3.8,9.13-.08,18.27-.1,27.41,0,3,0,4-1.29,3.94-4.13C195.6,684.41,195.68,679.56,195.68,674.7ZM470,226.52c0-5-.07-10,0-15,.05-2.68-.95-3.89-3.76-3.86-9.14.09-18.28.11-27.42,0-3,0-4,1.26-4,4.11q.1,14.56,0,29.14c0,2.89,1,4.09,4,4.05,9-.12,18-.14,27,0,3.26.06,4.27-1.26,4.18-4.32C469.86,236,470,231.24,470,226.52ZM313.2,675c0-4.85-.1-9.71,0-14.56.09-3-.91-4.42-4.16-4.37-9,.14-18,.12-27,0-2.94,0-4.07,1.06-4,4q.15,14.55,0,29.1c0,2.81.81,4.2,3.89,4.16,9.14-.12,18.27-.1,27.4,0,2.73,0,3.91-1,3.86-3.78C313.13,684.74,313.19,679.89,313.2,675ZM709.28,103.71c0,4.86.08,9.71,0,14.56-.06,2.78.77,4.23,3.88,4.19,9.13-.12,18.26-.1,27.39,0,2.73,0,3.87-1,3.85-3.79q-.09-14.76,0-29.53c0-2.61-.8-4-3.67-3.94q-13.92.13-27.83,0c-2.54,0-3.64,1-3.6,3.54C709.34,93.72,709.29,98.72,709.28,103.71Zm0,81.4c0,5,.07,10,0,15,0,2.74,1.08,3.82,3.83,3.8q13.7-.12,27.41,0c2.71,0,3.89-1,3.87-3.78q-.09-15,0-30c0-2.54-1.07-3.56-3.62-3.54-9.28.08-18.57.1-27.85,0-2.93,0-3.67,1.37-3.63,4C709.34,175.4,709.28,180.26,709.29,185.11Zm-121.82.17h0c0-4.85-.08-9.71,0-14.56.06-2.82-.86-4.17-3.93-4.13-9.14.13-18.28.11-27.41,0-2.8,0-3.8,1.1-3.78,3.81q.11,14.78,0,29.55c0,2.61.8,4,3.67,3.95,9.28-.09,18.56-.07,27.84,0,2.57,0,3.6-1.15,3.57-3.63C587.44,195.27,587.47,190.28,587.47,185.28ZM78.11,103.91c0-5,0-10,0-15,0-2.39-.66-3.76-3.38-3.74-9.41.07-18.83,0-28.25,0-2.3,0-3.44,1-3.44,3.3q0,15.19,0,30.39c0,2.53,1.16,3.56,3.67,3.54q13.91-.08,27.82,0c2.54,0,3.63-1,3.59-3.55C78,113.9,78.1,108.9,78.11,103.91Zm-39.29-.21c0-4.86,0-9.71,0-14.57,0-2.59-.76-4-3.66-3.95-9.28.1-18.56.08-27.84,0-2.51,0-3.67.94-3.65,3.51q.06,15,0,30c0,2.77,1.17,3.79,3.88,3.77,9.14-.09,18.27-.11,27.41,0,3.1,0,3.95-1.41,3.89-4.19C38.75,113.41,38.82,108.55,38.82,103.7ZM709.28,22.36c0,4.84.09,9.7,0,14.54-.08,2.93,1.07,4.06,4,4q13.47-.16,27,0c2.84,0,4.18-.88,4.16-3.91-.1-9.84-.08-19.67,0-29.51,0-2.72-1.07-3.83-3.82-3.8-9.12.08-18.25.1-27.38,0-3,0-4,1.3-3.92,4.13C709.36,12.66,709.28,17.51,709.28,22.36ZM434.83,470.24c0,5,.06,10,0,15-.05,2.83.94,4.18,4,4.15,9.13-.11,18.27-.09,27.41,0,2.75,0,3.83-1.07,3.81-3.8-.07-9.85-.09-19.7,0-29.55,0-3-1.27-3.95-4.13-3.92q-13.49.16-27,0c-2.92,0-4.17,1.06-4.09,4C434.91,460.82,434.83,465.53,434.83,470.24Zm152.66-448c0-4.85,0-9.7,0-14.55,0-2.58-.78-4-3.66-4-9.27.08-18.54.06-27.81,0-2.5,0-3.64,1-3.62,3.52q.08,15,0,29.94c0,2.77,1.13,3.78,3.84,3.75,9.13-.09,18.26-.11,27.38,0,3.08,0,4-1.38,3.9-4.17C587.42,31.9,587.49,27.05,587.49,22.21ZM313.18,226.39h0c0-4.86-.08-9.71,0-14.57.06-2.8-.87-4.2-3.93-4.16-9.14.11-18.28.09-27.42,0-2.76,0-3.82,1.09-3.8,3.81q.12,14.79,0,29.56c0,2.61.77,4,3.67,3.92,9.28-.1,18.56-.08,27.84,0,2.56,0,3.65-1,3.62-3.56C313.14,236.39,313.18,231.39,313.18,226.39Zm274.3.15c0-5-.05-10,0-15,0-2.66-1-3.91-3.76-3.88q-13.92.12-27.84,0c-2.62,0-3.51,1.19-3.5,3.65q.08,15,0,30c0,2.47.87,3.66,3.5,3.63q13.92-.1,27.83,0c2.83,0,3.8-1.19,3.76-3.85C587.43,236.24,587.49,231.39,587.48,226.54ZM195.67,185.41c0-5-.06-10,0-15,0-2.66-.91-3.88-3.73-3.85q-13.89.15-27.78,0c-2.89,0-3.68,1.35-3.67,3.93,0,9.83.08,19.66,0,29.49,0,3,1.38,3.93,4.19,3.9q13.45-.15,26.92,0c2.9,0,4.16-1,4.08-4C195.58,195.09,195.67,190.25,195.67,185.41ZM470,674.9c0-5-.07-10,0-15,.06-2.76-1.08-3.81-3.82-3.78q-13.71.14-27.41,0c-3,0-4,1.31-4,4.14q.1,14.57,0,29.12c0,2.94,1.18,4,4.1,4,9-.1,18-.13,27,0,3.28.05,4.22-1.36,4.13-4.37C469.87,684.32,470,679.61,470,674.9ZM709.28,226.3c0,4.86.09,9.71,0,14.57-.07,2.84.87,4.14,3.93,4.1,9.14-.13,18.28-.11,27.42,0,2.81,0,3.79-1.15,3.77-3.84-.06-9.85-.08-19.7,0-29.55,0-3-1.33-3.95-4.18-3.91q-13.49.15-27,0c-3,0-4,1.22-4,4.09C709.37,216.59,709.28,221.45,709.28,226.3Zm-588-41.23c0,5,.07,10,0,15-.06,2.7,1,3.86,3.77,3.84q13.71-.14,27.41,0c2.68,0,3.95-1,3.93-3.74q-.08-15,0-30c0-2.51-1-3.59-3.61-3.57-9.28.08-18.56.1-27.84,0-2.9,0-3.72,1.29-3.67,3.91C121.31,175.36,121.24,180.22,121.25,185.07ZM235,144.72c0-5-.06-10,0-15,0-2.53-1-3.62-3.55-3.61-9.56,0-19.11,0-28.67,0-2,0-3.3.67-3.29,2.93q.06,15.4.08,30.81c0,2.11,1,3,3.18,3q14.34-.09,28.67,0c2.53,0,3.61-1.08,3.57-3.61C234.91,154.42,235,149.57,235,144.72Zm-35.5,652.14h0c0,5,.06,10,0,15,0,2.56,1,3.54,3.57,3.52,9.41-.09,18.82-.08,28.23,0,2.78,0,3.75-1.25,3.73-3.92q-.12-14.53,0-29.08c0-2.79-1.13-3.77-3.84-3.74q-13.89.12-27.8,0c-3,0-4,1.33-3.93,4.16C199.54,787.45,199.46,792.16,199.46,796.86ZM709.28,593c0,5,.07,10,0,15,0,2.65.87,3.9,3.72,3.87,9.28-.11,18.56-.09,27.84,0,2.61,0,3.55-1.14,3.54-3.62,0-10-.06-20,0-30,0-2.83-1.3-3.7-4-3.68q-13.7.12-27.41,0c-2.81,0-3.8,1.18-3.75,3.86C709.35,583.3,709.28,588.16,709.28,593ZM195.67,470.72c0-5,0-10,0-15,0-2.49-1-3.63-3.55-3.61q-13.92.11-27.84,0c-2.79,0-3.8,1.17-3.78,3.85q.09,14.78,0,29.55c0,2.68,1,3.88,3.79,3.86,9.14-.08,18.28-.1,27.41,0,3,0,4.05-1.23,4-4.1C195.59,480.43,195.68,475.58,195.67,470.72ZM235,63.32c0-4.7-.13-9.41.05-14.11.12-3.24-.93-4.65-4.37-4.59-9,.16-18,.13-26.94,0-3.07,0-4.36,1-4.3,4.2.15,9.55.14,19.1.06,28.65,0,2.7.9,4,3.68,3.94q14.11-.08,28.23,0c2.87,0,3.67-1.41,3.62-4C234.9,72.73,235,68,235,63.32ZM470,22.18c0-4.71-.11-9.42,0-14.12.09-3-.83-4.44-4.12-4.39-9,.15-18,.12-27,0-2.88,0-4.16,1-4.13,4q.12,14.55,0,29.1c0,2.82.91,4.19,3.95,4.16q13.69-.16,27.39,0c3.12,0,3.92-1.42,3.86-4.19C469.89,31.88,470,27,470,22.18ZM156.33,470.67c0-4.85-.09-9.71,0-14.56.07-2.94-1.14-4-4.08-4q-13.49.16-27,0c-2.87,0-4.15.88-4.11,3.92.11,9.84.09,19.69,0,29.54,0,2.72,1,3.84,3.79,3.81,9.13-.08,18.27-.1,27.4,0,3,0,4-1.34,3.95-4.16C156.26,480.37,156.33,475.52,156.33,470.67ZM78.12,471c0-4.85-.12-9.7,0-14.55.09-3-.82-4.41-4.11-4.35-9,.15-18,.12-27,0-2.94,0-4.09,1.11-4.06,4q.12,14.55,0,29.11c0,2.82.94,4.17,4,4.14q13.69-.17,27.39,0c2.79,0,3.82-1.12,3.76-3.84C78,480.7,78.11,475.84,78.12,471Zm353,285.7c0-4.71,0-9.43,0-14.14,0-3-1.16-4.49-4.3-4.47q-13.72.1-27.43,0c-2.67,0-3.91,1-3.89,3.8q.1,14.57,0,29.14c0,2.73,1,3.83,3.8,3.81q14.15-.14,28.29,0c2.56,0,3.6-1,3.55-3.57C431.09,766.41,431.15,761.55,431.15,756.69ZM278.1,22.32c0,5,0,10,0,15,0,2.5.95,3.63,3.53,3.61q13.9-.1,27.81,0c2.79,0,3.81-1.18,3.79-3.85q-.09-14.76,0-29.52c0-2.69-1-3.87-3.81-3.84-9.12.08-18.25.1-27.38,0-3,0-4,1.23-4,4.09C278.18,12.62,278.1,17.47,278.1,22.32ZM38.82,308c0-5-.06-10,0-15,0-2.68-1-3.89-3.76-3.86q-13.93.12-27.86,0c-2.6,0-3.55,1.16-3.54,3.63q.07,15,0,30c0,2.48.93,3.65,3.54,3.63q13.94-.12,27.86,0c2.81,0,3.81-1.18,3.76-3.85C38.76,317.7,38.82,312.84,38.82,308ZM235,756.86c0-4.85-.08-9.71,0-14.56.07-2.81-.84-4.26-3.89-4.23-9.13.08-18.27.06-27.41,0-2.82,0-4.24,1.15-4.23,4.06,0,9.71,0,19.42,0,29.13,0,2.56,1,3.57,3.56,3.55q14.14-.11,28.27,0c2.8,0,3.8-1.14,3.74-3.84C234.89,766.29,235,761.57,235,756.86ZM78.1,308.21c0-5.14,0-10.28,0-15.41,0-2.46-.82-3.69-3.46-3.67q-13.92.12-27.84,0C44,289.1,43,290.32,43,293q.09,14.77,0,29.55c0,3,1.39,3.91,4.21,3.87,9-.1,18-.12,27,0,3.05.05,4-1.2,3.94-4.07C78,317.64,78.11,312.93,78.1,308.21Zm121.42,40.13h-.06c0,5,.06,10,0,15,0,2.51,1,3.64,3.54,3.63,9.55-.06,19.11,0,28.66,0,2.33,0,3.34-1.09,3.33-3.4q0-15,0-29.95c0-2.31-1-3.39-3.31-3.39q-14.34,0-28.67,0c-2.54,0-3.56,1.08-3.5,3.63C199.6,338.64,199.52,343.49,199.52,348.34ZM78.11,185.51c0-4.86-.1-9.71,0-14.56.09-3-.74-4.43-4.08-4.37-9,.17-18,.13-27,0-3,0-4.09,1.11-4.07,4q.12,14.56,0,29.13c0,2.8.9,4.21,3.95,4.17q13.7-.15,27.41,0c2.78,0,3.82-1.13,3.76-3.84C78,195.22,78.11,190.36,78.11,185.51ZM195.67,308.37c0-5-.11-10,0-15,.1-3.12-1.07-4.32-4.24-4.27q-13.29.21-26.57,0c-3,0-4.44.9-4.4,4.14.12,9.71.09,19.43,0,29.14,0,2.91,1.08,4.07,4.05,4,9-.12,18-.14,27,0,3.27.06,4.25-1.31,4.16-4.35C195.57,317.52,195.68,312.94,195.67,308.37ZM38.83,185.6c0-5-.09-10,0-15,.07-2.93-1.09-4-4.06-4q-13.5.19-27,0c-2.88,0-4.17.9-4.14,3.91.09,9.86.07,19.72,0,29.57,0,2.72,1.08,3.85,3.83,3.83,9.14-.08,18.29-.1,27.43,0,3.06,0,4-1.37,3.92-4.18C38.75,195,38.83,190.31,38.83,185.6ZM313.2,307.89c0-4.85-.07-9.71,0-14.56,0-2.77-.77-4.25-3.88-4.21-9.14.11-18.28.09-27.42,0-2.72,0-3.87,1-3.85,3.76q.12,14.78,0,29.56c0,3,1.11,4,4.05,4,9-.12,18-.14,27,0,3.31.05,4.21-1.42,4.13-4.4C313.11,317.32,313.2,312.61,313.2,307.89ZM587.49,593.24c0-4.86-.08-9.71,0-14.56.06-2.87-1-4.14-4-4.1q-13.69.17-27.41,0c-2.83,0-3.74,1.22-3.72,3.88q.11,14.78,0,29.55c0,2.67.9,3.89,3.73,3.86,9.14-.1,18.28-.12,27.41,0,3,0,4.05-1.23,4-4.09C587.41,603,587.49,598.09,587.49,593.24ZM195.68,22.38c0-4.85-.08-9.7,0-14.55.07-2.83-.86-4.18-3.92-4.14q-13.69.16-27.39,0c-3.1,0-3.91,1.42-3.89,4.2.07,9.56.09,19.12,0,28.67,0,3,.91,4.42,4.17,4.37,9-.14,18-.12,27,0,2.92,0,4.16-1,4.08-4C195.58,32.09,195.67,27.23,195.68,22.38Zm356.75,285c0,5,.09,10,0,15-.07,2.89,1,4.1,4,4.06,9-.13,18-.11,27,0,2.84,0,4.21-.84,4.18-3.89-.1-9.85-.07-19.7,0-29.55,0-2.68-1-3.88-3.78-3.85-9.14.08-18.28.1-27.41,0-3.06,0-4,1.29-3.93,4.13C552.51,298,552.43,302.66,552.43,307.37ZM3.69,593.13c0,4.85.07,9.71,0,14.56-.05,2.77.74,4.24,3.87,4.2,9.14-.13,18.29-.11,27.43,0,2.71,0,3.9-1,3.88-3.74-.06-9.85-.08-19.71,0-29.57,0-3-1.18-4-4.1-4-9,.11-18,.14-27,0-3.31-.05-4.2,1.44-4.12,4.41C3.78,583.7,3.69,588.41,3.69,593.13ZM709.28,307.56c0,5,.06,10,0,15,0,2.67.91,3.89,3.74,3.86,9.14-.1,18.28-.12,27.41,0,3,0,4-1.22,4-4.08q-.14-14.56,0-29.13c0-2.86-1-4.14-4-4.1-9,.12-18,.14-27,0-3.24-.05-4.27,1.27-4.18,4.33C709.38,298.13,709.28,302.85,709.28,307.56ZM470,593.11c0-4.72-.1-9.44,0-14.15.09-3-.8-4.45-4.11-4.39-9,.15-18,.12-27,0-2.92,0-4.12,1.08-4.09,4q.12,14.56,0,29.14c0,2.81.87,4.19,3.94,4.14,9.14-.12,18.29-.1,27.43,0,2.76,0,3.88-1,3.82-3.77C469.89,603.11,470,598.11,470,593.11Zm-313.65.06c0-4.86-.07-9.72,0-14.57.07-2.93-1.14-4.05-4.08-4q-13.49.17-27,0c-2.9,0-4.11,1-4.08,4,.11,9.85.09,19.71,0,29.56,0,2.74,1,3.81,3.8,3.78,9.14-.1,18.28-.12,27.42,0,3.08,0,4-1.35,3.92-4.15C156.26,602.88,156.33,598,156.32,593.17Zm39.36.52c0-5-.08-10,0-15,.06-2.85-.93-4.15-4-4.11-9.14.12-18.28.1-27.42,0-2.79,0-3.82,1.17-3.8,3.85q.09,14.79,0,29.57c0,2.67.94,3.9,3.76,3.87q13.93-.15,27.86,0c2.6,0,3.58-1.12,3.55-3.61C195.62,603.4,195.67,598.55,195.68,593.69ZM38.82,22.41c0-4.85-.07-9.7,0-14.55C38.91,5.07,38,3.65,35,3.69c-9.13.11-18.26.09-27.39,0-2.69,0-3.91,1-3.89,3.74Q3.78,22.2,3.66,37c0,3,1.23,4,4.11,4,9-.1,18-.13,27,0,3.28,0,4.2-1.4,4.12-4.39C38.73,31.83,38.83,27.12,38.82,22.41ZM744.35,674.72c0-4.85-.08-9.71,0-14.55.07-2.92-1.06-4.09-4-4q-13.47.17-27,0c-2.83,0-4.19.84-4.16,3.9.11,9.84.09,19.69,0,29.53,0,2.7,1,3.85,3.78,3.83,9.13-.09,18.26-.11,27.39,0,3,0,4-1.28,4-4.12C744.28,684.42,744.35,679.57,744.35,674.72ZM278.1,593.06c0,4.86.11,9.72-.05,14.57-.1,3.1,1,4.32,4.21,4.27,8.86-.16,17.71-.14,26.57,0,3,0,4.44-.87,4.4-4.12-.11-9.71-.09-19.42,0-29.13,0-2.9-1.07-4.09-4.05-4.06-9,.11-18,.14-27,0-3.27,0-4.23,1.34-4.13,4.37C278.2,583.63,278.09,588.35,278.1,593.06ZM195.66,226.32c0-5,0-10,0-15,0-2.48-.93-3.66-3.53-3.64q-13.93.09-27.86,0c-2.81,0-3.78,1.22-3.77,3.88q.09,14.77,0,29.57c0,2.68,1,3.86,3.78,3.83,9.15-.09,18.29-.11,27.43,0,3,0,4.05-1.21,4-4.08C195.59,236,195.67,231.18,195.66,226.32ZM78.11,22.74c0-5.13-.06-10.27,0-15.4,0-2.48-.87-3.65-3.49-3.63q-13.89.09-27.8,0C44.08,3.67,43,4.86,43,7.54q.07,14.76,0,29.51c0,2.68,1,3.88,3.8,3.86q13.89-.13,27.8,0c2.6,0,3.54-1.12,3.5-3.62C78.05,32.44,78.11,27.59,78.11,22.74Zm43.14-.42c0,5,0,10,0,15,0,2.5.94,3.62,3.53,3.6q13.91-.1,27.8,0c2.79,0,3.8-1.19,3.79-3.86q-.09-14.76,0-29.51c0-2.69-1-3.87-3.81-3.84-9.13.08-18.25.1-27.38,0-3,0-4,1.23-3.94,4.1C121.33,12.63,121.24,17.48,121.25,22.32ZM235,430.33c0-5-.06-10,0-15,0-2.43-.78-3.75-3.43-3.74q-14.34.07-28.69,0c-2.28,0-3.43.88-3.42,3.28.05,9.7,0,19.41,0,29.12,0,2.93,1.23,4.46,4.39,4.43q13.49-.14,27,0c3.23,0,4.25-1.37,4.15-4.41C234.86,439.47,235,434.9,235,430.33ZM3.69,470.67c0,4.85.07,9.71,0,14.57-.06,2.82.9,4.18,4,4.14,9.14-.11,18.28-.09,27.42,0,2.76,0,3.83-1.12,3.81-3.83q-.09-14.78,0-29.56c0-2.67-1-3.9-3.76-3.87q-13.92.15-27.85,0c-2.61,0-3.6,1-3.56,3.53C3.75,460.67,3.7,465.67,3.69,470.67Zm274.41-.4c0,5.14,0,10.28,0,15.42,0,2.46.88,3.69,3.5,3.67q13.92-.09,27.85,0c2.78,0,3.8-1.21,3.78-3.88q-.07-14.78,0-29.56c0-2.71-1.06-3.84-3.82-3.82q-13.92.15-27.85,0c-2.6,0-3.54,1-3.48,3.56C278.18,460.56,278.1,465.42,278.1,470.27Zm-200,204.81c0-5-.1-10,0-15,.09-3-1.07-4-4-4q-13.26.17-26.51,0c-3.27,0-4.65,1.16-4.62,4.48.1,9.55.08,19.1,0,28.65,0,2.81.92,4.17,4,4.13,9.12-.11,18.24-.09,27.36,0,2.74,0,3.86-1,3.8-3.77C78,684.77,78.11,679.92,78.11,675.08Zm-39.3-.25h0c0-4.85-.07-9.7,0-14.55.06-2.8-.83-4.2-3.9-4.16-9.13.12-18.26.08-27.38,0-2.71,0-3.89,1.15-3.88,3.84q.06,15,0,29.94c0,2.63,1.29,3.45,3.73,3.43q13.91-.08,27.81,0c2.54,0,3.63-1,3.6-3.57C38.77,684.81,38.81,679.82,38.81,674.83Zm548.68.31c0-4.85-.07-9.7,0-14.54.05-3-.9-4.52-4.16-4.47q-13.7.18-27.38,0c-2.56,0-3.6.88-3.58,3.47q.11,15,0,29.94c0,2.72,1,3.83,3.8,3.8,9.13-.09,18.25-.11,27.38,0,3,0,4-1.31,3.94-4.14C587.42,684.55,587.49,679.84,587.49,675.14ZM552.43,470.56c0,5,.07,10,0,15,0,2.73,1,3.85,3.8,3.83q13.71-.13,27.42,0c2.71,0,3.9-1,3.89-3.76-.06-9.86-.08-19.72,0-29.57,0-3-1.27-4-4.15-3.94-9,.13-18,.22-27,0-3.35-.07-4.15,1.24-4,4.28C552.56,461.12,552.42,465.84,552.43,470.56ZM121.24,674.65c0,4.85.12,9.71,0,14.56-.11,3.21,1.21,4.23,4.31,4.19,8.71-.14,17.42-.17,26.13,0,3.52.07,4.81-1.14,4.76-4.69-.16-9.56-.11-19.13,0-28.69,0-2.49-.68-3.83-3.29-3.82l-28.69,0c-2.32,0-3.28,1-3.23,3.42C121.32,664.65,121.24,669.65,121.24,674.65ZM235,267.33c0-5-.05-10,0-15,0-2.51-1-3.67-3.52-3.65q-13.92.06-27.85,0c-2.66,0-4.06,1.16-4.07,3.78q-.06,14.57,0,29.13c0,2.59,1.29,3.88,4,3.86q13.92-.07,27.84,0c2.88,0,3.68-1.41,3.63-4C234.9,276.75,235,272,235,267.33ZM434.83,267h-.24c0,4.71.13,9.43,0,14.13-.11,2.8.58,4.34,3.71,4.32q13.94-.12,27.85,0c2.7,0,3.89-1.05,3.87-3.8q-.09-14.58,0-29.14c0-2.71-1.07-3.88-3.81-3.86q-13.71.11-27.43,0c-3,0-4,1.42-3.94,4.21C434.89,257.6,434.83,262.31,434.83,267ZM78.11,348.78c0-4.85-.09-9.69,0-14.54.08-2.86-.94-4.14-3.94-4.11-9.12.11-18.24.08-27.36,0-2.67,0-4,1-4,3.75.08,9.69.16,19.38.17,29.06,0,2.6.95,4,3.74,4q13.9-.07,27.79,0c2.53,0,3.6-1.1,3.56-3.62C78.05,358.47,78.1,353.62,78.11,348.78ZM434.8,715h0c0,5,0,10,0,15,0,2.68,1.14,3.91,3.86,3.89q13.71-.06,27.42,0c2.69,0,3.9-1.08,3.88-3.82q-.09-14.58,0-29.15c0-2.72-1.06-3.84-3.81-3.82q-14.15.12-28.29,0c-2.47,0-3.2,1-3.13,3.33C434.9,705.29,434.8,710.15,434.8,715ZM43.05,267.49h0c0,4.72.12,9.43-.05,14.14-.11,2.66.54,3.91,3.5,3.87,9.28-.14,18.56-.1,27.84,0,2.73,0,3.84-1.08,3.82-3.83q-.12-14.55,0-29.12c0-2.73-1-3.87-3.79-3.85q-13.71.11-27.42,0c-3.07,0-4,1.5-3.9,4.26C43.11,257.78,43.05,262.64,43.05,267.49ZM42.92,144h.14c0,5,0,10,0,15,0,2.64,1,3.93,3.79,3.92q13.91-.09,27.79,0c2.58,0,3.51-1.22,3.5-3.69q-.08-14.74,0-29.5c0-2.56-1.09-3.57-3.6-3.55-9.27,0-18.53.06-27.79,0-3,0-4,1.34-3.87,4.21C43,134.88,42.92,139.44,42.92,144ZM434.83,797.38h-.05c0,4.71.16,9.43-.06,14.13-.13,2.84.91,3.85,3.65,3.83,9.14-.07,18.27-.1,27.41,0,3.17,0,4.26-1.29,4.22-4.36q-.15-14.13,0-28.26c0-2.81-.85-4.19-3.92-4.15-9.13.11-18.27.09-27.4,0-2.73,0-3.9,1.09-3.87,3.81C434.88,787.39,434.83,792.39,434.83,797.38ZM121.24,511.82c0,5,0,10,0,15,0,2,.5,3.17,2.88,3.15q14.13-.15,28.27-.06c3,0,4-1.43,4-4.23q-.1-14.34,0-28.69c0-2.69-1-3.87-3.81-3.85-9.14.08-18.28.11-27.41,0-3.07,0-4,1.32-3.91,4.15C121.32,502.11,121.24,507,121.24,511.82Zm313.59-81.5h0c0,4.85.11,9.7-.05,14.53-.08,2.55.72,3.61,3.37,3.59q13.89-.15,27.78,0c2.88,0,4.12-1.1,4.09-4q-.12-14.53,0-29.07c0-2.79-1.24-3.76-3.89-3.74-9.12.07-18.24.09-27.36,0-3,0-4,1.43-3.93,4.21C434.89,420.63,434.83,425.48,434.83,430.32Zm-313.58-41c0,5,0,10,0,15,0,2.52,1,3.61,3.56,3.59q13.9-.11,27.82,0c2.46,0,3.72-.91,3.71-3.49q-.06-14.77,0-29.54c0-2.47-1.1-3.69-3.61-3.68-9.28,0-18.55,0-27.83,0-2.84,0-3.69,1.45-3.65,4C121.3,379.9,121.24,384.61,121.25,389.32Zm-43.14.32c0-4.85-.07-9.7,0-14.55.05-2.67-1-3.95-3.74-3.93q-13.69.09-27.4,0c-2.65,0-4,1.07-3.94,3.81,0,9.7,0,19.41,0,29.11,0,2.71,1.1,3.84,3.84,3.82,9.13-.07,18.27-.1,27.4,0,3.08,0,4-1.34,3.88-4.15C78,399.06,78.11,394.35,78.11,389.64Zm-39.29-.11c0-4.57-.1-9.14,0-13.7.1-3.17-.93-4.75-4.38-4.7-8.85.13-17.7.1-26.55,0-3.15,0-4.31,1.29-4.27,4.37q.13,14.13,0,28.27c0,2.82.89,4.18,3.94,4.14,9.14-.11,18.28-.09,27.41,0,2.74,0,3.89-1.07,3.84-3.81C38.76,399.24,38.82,394.39,38.82,389.53ZM470,634c0-4.86-.07-9.71,0-14.57.05-2.75-1.14-3.83-3.85-3.81q-13.72.1-27.44,0c-2.7,0-3.9,1.1-3.88,3.83q.07,14.57,0,29.14c0,2.73,1.22,3.84,3.9,3.82q13.72-.07,27.43,0c2.73,0,3.88-1.12,3.83-3.85C469.9,643.7,470,638.84,470,634ZM313.2,144.39c0-4.57-.11-9.14,0-13.7.11-3.24-1-4.65-4.45-4.59q-13.28.21-26.55,0c-3.23,0-4.22,1.32-4.18,4.37.11,9.42.09,18.84,0,28.26,0,2.83.93,4.21,3.94,4.18q13.5-.14,27,0c3.18,0,4.3-1.34,4.22-4.38C313.1,153.82,313.19,149.1,313.2,144.39ZM744.36,348.44c0-4.57-.12-9.14,0-13.7.11-3.22-1-4.68-4.41-4.63-8.85.16-17.7.14-26.55,0-3.21,0-4.24,1.31-4.2,4.36q.16,14.14,0,28.27c0,3.21,1.33,4.25,4.37,4.22q13.29-.17,26.56,0c3.2,0,4.3-1.35,4.22-4.39C744.26,357.87,744.35,353.15,744.36,348.44ZM552.44,633.77c0,5,0,10,0,15,0,2.51,1.06,3.63,3.59,3.62q13.92-.06,27.84,0c2.5,0,3.65-1.08,3.64-3.6q0-14.78,0-29.55c0-2.51-1.1-3.63-3.62-3.62q-13.92.07-27.84,0c-2.52,0-3.64,1-3.61,3.59C552.48,624.06,552.44,628.91,552.44,633.77Zm0-285.57c0,4.57.16,9.15,0,13.7-.17,3.6.94,5.19,4.82,5.1,8.56-.21,17.13-.15,25.69,0,3.21,0,4.7-1,4.65-4.41q-.19-14.13,0-28.26c0-3.23-1.39-4.21-4.41-4.17-8.85.1-17.7.12-26.55,0-3.23,0-4.27,1.34-4.17,4.38C552.53,339.06,552.43,343.63,552.42,348.2Zm-82.45.54c0-4.86-.06-9.71,0-14.57,0-2.56-.74-4-3.63-4-9.29.07-18.57.05-27.86,0-2.49,0-3.67,1.05-3.66,3.58q0,14.79,0,29.57c0,2.52,1.18,3.61,3.67,3.61q13.92-.06,27.85,0c2.52,0,3.64-1.09,3.61-3.62C469.91,358.46,470,353.6,470,348.74Zm-191.86-.47c0,5,0,10,0,15,0,2.49,1,3.68,3.55,3.67q13.92-.06,27.85,0c2.46,0,3.7-1,3.7-3.57q0-14.78,0-29.56c0-2.48-1.06-3.65-3.6-3.64q-13.92.07-27.84,0c-2.86,0-3.72,1.37-3.67,4C278.16,338.84,278.1,343.55,278.11,348.27ZM709.29,634c0,4.86.06,9.71,0,14.56,0,2.71,1.08,3.89,3.82,3.87q13.7-.1,27.41,0c2.7,0,3.89-1.07,3.88-3.81q-.09-14.57,0-29.13c0-2.71-1.11-3.87-3.84-3.85q-13.71.09-27.41,0c-2.71,0-3.91,1.06-3.86,3.81C709.35,624.26,709.29,629.12,709.29,634Zm-396.1.24c0-4.86-.07-9.72,0-14.57.06-2.93-1.2-4.08-4.11-4q-13.49.12-27,0c-2.92,0-4.08,1.12-4.06,4q.15,14.36,0,28.7c0,2.94,1.14,4.1,4.06,4.07q13.5-.13,27,0c2.91,0,4.17-1.14,4.11-4.07C313.12,643.63,313.19,638.92,313.19,634.21ZM160.54,389.71c0,4.71.08,9.42,0,14.13-.06,2.89,1.05,4.11,4,4.07q13.69-.15,27.41,0c2.81,0,3.76-1.22,3.75-3.88q-.1-14.34,0-28.7c0-2.84-1-4.2-4-4.17-9,.07-18,.09-27,0-3.2,0-4.28,1.42-4.21,4.43C160.63,380.28,160.54,385,160.54,389.71Zm152.64,0c0-4.86,0-9.71,0-14.56,0-2.66-1.07-4-3.81-3.93q-13.69.06-27.4,0c-2.66,0-3.92,1-3.91,3.79q.09,14.55,0,29.11c0,2.69,1,3.88,3.77,3.85q13.7-.14,27.4,0c3,0,4.05-1.27,4-4.12C313.12,399.08,313.2,394.37,313.18,389.66ZM156.32,63c0-4.71-.06-9.42,0-14.13.05-2.82-1-4.21-4-4.18q-13.71.12-27.41,0c-2.79,0-3.77,1.24-3.75,3.91q.11,14.55,0,29.12c0,2.79,1.23,3.78,3.9,3.76q13.69-.1,27.41,0c2.75,0,3.84-1.24,3.8-3.9C156.27,72.67,156.31,67.82,156.32,63Zm39.36,571c0-4.71-.07-9.43,0-14.14.06-2.79-.84-4.25-3.9-4.22-9.15.09-18.29.07-27.43,0-2.74,0-3.86,1.15-3.85,3.86q.09,14.56,0,29.14c0,2.75,1.24,3.81,3.91,3.8q13.73-.09,27.43,0c2.74,0,3.87-1.17,3.82-3.87C195.61,643.67,195.67,638.81,195.68,634Zm-74.43,0c0,4.86.06,9.71,0,14.57,0,2.71,1.06,3.87,3.8,3.85q13.71-.1,27.42,0c2.69,0,3.91-1.09,3.9-3.82q-.08-14.57,0-29.13c0-2.72-1.16-3.86-3.87-3.84q-13.71.09-27.42,0c-2.72,0-3.89,1.07-3.83,3.82C121.32,624.27,121.25,629.13,121.25,634Zm74.42-285.36c0-4.86-.06-9.71,0-14.57.05-2.67-1-3.92-3.77-3.9q-13.71.11-27.42,0c-2.64,0-4,.91-4,3.72q.09,14.56,0,29.14c0,2.65,1,3.95,3.79,3.93q13.71-.09,27.42,0c3,0,4-1.36,4-4.19C195.6,358.05,195.68,353.34,195.67,348.62ZM78.11,63c0-4.85-.08-9.7,0-14.56.06-2.73-1-3.85-3.79-3.83q-13.71.1-27.41,0c-2.7,0-3.91,1.09-3.89,3.82Q43.12,63,43,77.6c0,2.72,1.18,3.85,3.88,3.83q13.71-.09,27.41,0c2.74,0,3.86-1.1,3.8-3.83C78,72.75,78.1,67.9,78.11,63ZM552.43,511.36c0,4.71.09,9.43,0,14.13-.08,3,1,4.46,4.18,4.42,8.85-.1,17.7-.08,26.55,0,3,0,4.44-1,4.4-4.23-.09-9.57-.07-19.13,0-28.69,0-2.67-1-3.9-3.77-3.87-9.14.08-18.28.1-27.41,0-3,0-4,1.28-3.94,4.12C552.51,501.94,552.42,506.65,552.43,511.36ZM38.82,62.85c0-4.71-.08-9.42,0-14.14.06-2.91-1.14-4.1-4.07-4.07q-13.5.13-27,0c-2.88,0-4.15,1.05-4.13,4Q3.8,63,3.66,77.37c0,2.91,1.15,4.1,4.07,4.08,9-.09,18-.11,27,0C38,81.5,38.93,80,38.86,77,38.74,72.28,38.82,67.57,38.82,62.85ZM78.1,634.23c0-5,0-10,0-15,0-2.51-1-3.65-3.54-3.63q-13.92.07-27.85,0c-2.48,0-3.68,1-3.68,3.58q0,14.77,0,29.55c0,2.49,1.12,3.65,3.63,3.64q13.92-.06,27.84,0c2.52,0,3.64-1,3.6-3.59C78.05,643.94,78.1,639.09,78.1,634.23ZM3.7,634c0,4.86,0,9.72,0,14.57-.05,2.73,1.15,3.85,3.86,3.84q13.71-.1,27.43,0c2.7,0,3.88-1.11,3.87-3.84q-.09-14.56,0-29.14c0-2.73-1.16-3.84-3.87-3.82q-13.71.1-27.42,0c-2.71,0-3.92,1.09-3.87,3.82C3.76,624.28,3.7,629.14,3.7,634Zm192-570.54c0-4.85-.07-9.71,0-14.56.06-2.77-.8-4.28-3.88-4.25-9.14.1-18.29.08-27.43,0-2.71,0-3.88,1.11-3.86,3.83q.08,14.58,0,29.14c0,2.74,1.2,3.83,3.89,3.81q13.71-.09,27.43,0c2.72,0,3.89-1.11,3.84-3.84C195.61,72.88,195.67,68.17,195.68,63.45Zm513.61,733c0,5,.06,10,0,15,0,2.71,1.11,3.87,3.83,3.86q13.7-.09,27.39,0c2.7,0,3.89-1.12,3.87-3.84q-.08-14.57,0-29.11c0-2.75-1.14-3.81-3.86-3.79q-13.69.12-27.4,0c-2.71,0-3.91,1-3.85,3.77C709.36,787.06,709.29,791.77,709.29,796.48ZM278.11,62.61c0,5,.06,10,0,15-.05,2.73,1.11,3.85,3.83,3.83q13.71-.09,27.41,0c2.7,0,3.9-1.1,3.89-3.83q-.09-14.56,0-29.12c0-2.73-1.18-3.84-3.88-3.82q-13.71.09-27.42,0c-2.72,0-3.89,1.08-3.83,3.82C278.17,53.18,278.11,57.9,278.11,62.61ZM470,389.77c0-4.85-.08-9.71,0-14.56.07-2.94-1.2-4.09-4.09-4.06q-13.5.11-27,0c-2.9,0-4.13,1.21-4.11,4.11q.09,14.34,0,28.69c0,2.61.87,4,3.71,3.95q13.92-.12,27.84,0c2.91,0,3.67-1.42,3.63-4C469.91,399.2,470,394.48,470,389.77Zm117.52-.21c0-4.85-.05-9.71,0-14.56,0-2.72-1.2-3.85-3.88-3.84q-13.7.07-27.4,0c-2.73,0-3.82,1.2-3.8,3.89q.09,14.55,0,29.11c0,2.77,1.15,3.77,3.86,3.75q13.69-.14,27.4,0c2.72,0,3.9-1,3.85-3.79C587.42,399.26,587.49,394.41,587.48,389.56Zm156.86,0c0-4.85-.05-9.7,0-14.55,0-2.72-1.17-3.87-3.87-3.86q-13.69.07-27.39,0c-2.73,0-3.85,1.18-3.83,3.88q.09,14.55,0,29.11c0,2.77,1.15,3.78,3.86,3.76q13.7-.14,27.4,0c2.72,0,3.9-1,3.85-3.78C744.29,399.27,744.35,394.42,744.34,389.57ZM470,63.09c0-4.86-.06-9.72,0-14.57,0-2.71-1.05-3.89-3.8-3.87q-13.72.1-27.43,0c-2.66,0-3.95,1-3.94,3.78q.07,14.57,0,29.14c0,2.7,1.13,3.88,3.85,3.86,9.14-.06,18.29-.08,27.43,0,3.06,0,4-1.42,3.9-4.21C469.9,72.52,470,67.8,470,63.09Zm-431.14,367c0-4.84-.08-9.68,0-14.53.06-2.92-1.16-4.07-4.07-4q-13.47.14-26.92,0c-2.81,0-4.22.88-4.2,3.91.09,9.69.07,19.38,0,29.06,0,2.7,1.13,3.88,3.84,3.86,9.12-.05,18.23-.07,27.35,0,3,0,4-1.35,4-4.17C38.75,439.55,38.82,434.84,38.82,430.14ZM587.48,63.08c0-4.85-.05-9.71,0-14.56,0-2.7-1.08-3.88-3.82-3.86q-13.7.09-27.4,0c-2.69,0-3.89,1-3.87,3.78q.11,14.56,0,29.12c0,2.69,1,3.89,3.78,3.87q13.71-.11,27.41,0c3,0,4-1.44,3.91-4.23C587.41,72.5,587.48,67.79,587.48,63.08ZM38.82,715.47c0-4.71-.07-9.42,0-14.13.06-2.78-.79-4.26-3.89-4.22-9.14.1-18.28.08-27.42,0-2.71,0-3.89,1-3.87,3.78q.11,14.57,0,29.14c0,2.71,1.17,3.87,3.87,3.85q13.71-.07,27.42,0c2.7,0,3.9-1.16,3.86-3.87C38.76,725.19,38.81,720.33,38.82,715.47Zm39.29.06c0-4.85-.08-9.71,0-14.56.06-2.7-1-3.88-3.75-3.85q-13.69.14-27.41,0c-2.66,0-4,1-3.94,3.73q.08,14.57,0,29.12c0,2.66,1.1,3.93,3.83,3.92q13.7-.06,27.41,0c2.69,0,3.9-1.06,3.85-3.82C78,725.24,78.1,720.39,78.11,715.53ZM121.25,348.1c0,5,.06,10,0,15,0,2.73,1.09,3.87,3.82,3.85q13.69-.09,27.41,0c2.7,0,3.9-1.14,3.88-3.85q-.06-14.56,0-29.13c0-2.73-1.18-3.83-3.88-3.81q-13.71.09-27.41,0c-2.74,0-3.88,1.09-3.82,3.83C121.32,338.68,121.25,343.39,121.25,348.1Zm35.06,367.33h0c0-4.71-.07-9.42,0-14.13.06-2.8-.89-4.22-3.94-4.18q-13.71.15-27.41,0c-2.77,0-3.81,1.12-3.79,3.84q.12,14.55,0,29.12c0,2.75,1.16,3.85,3.86,3.83q13.71-.09,27.41,0c2.72,0,3.87-1.23,3.84-3.9C156.27,725.14,156.31,720.29,156.31,715.43Zm4.24-.43c0,5,0,10,0,15,0,2.68,1.09,3.93,3.83,3.91q13.71-.06,27.42,0c2.67,0,3.92-1.06,3.91-3.81q-.09-14.57,0-29.14c0-2.71-1.06-3.86-3.81-3.84-9.15.08-18.29.1-27.43,0-3.05,0-4,1.35-4,4.16C160.61,705.85,160.54,710.42,160.55,715ZM78.11,430c0-4.85-.08-9.71,0-14.56,0-2.69-1-3.91-3.74-3.89q-13.71.12-27.42,0c-2.66,0-4,1-3.94,3.76q.08,14.56,0,29.14c0,2.66,1.08,3.93,3.82,3.92q13.71-.07,27.42,0c2.7,0,3.91-1.06,3.85-3.82C78,439.75,78.1,434.89,78.11,430ZM38.82,348.61c0-4.85-.06-9.71,0-14.57,0-2.67-1-3.91-3.78-3.89q-13.71.11-27.43,0c-2.64,0-4,.92-3.95,3.72q.09,14.58,0,29.14c0,2.66,1,3.94,3.78,3.93q13.71-.09,27.43,0c3,0,4-1.38,4-4.2C38.75,358,38.82,353.33,38.82,348.61ZM313.19,715.27c0-4.71-.07-9.43,0-14.14.07-3-1.19-4-4.1-4q-13.5.14-27,0c-2.92,0-4.1,1-4.07,4q.15,14.36,0,28.7c0,2.91,1.11,4.13,4,4.1q13.5-.12,27,0c2.89,0,4.17-1.17,4.11-4.09C313.12,725,313.19,720.12,313.19,715.27ZM121.24,429.63c0,4.85.11,9.71,0,14.56-.1,3.19,1.27,4.28,4.34,4.25q13.27-.17,26.56,0c3.18,0,4.29-1.36,4.26-4.4-.09-9.43-.11-18.85,0-28.28,0-3.2-1.37-4.23-4.41-4.2-8.86.11-17.71.13-26.57,0-3.21-.05-4.28,1.29-4.18,4.36C121.35,420.48,121.24,425.06,121.24,429.63ZM470,144.56c0-4.86-.06-9.72,0-14.57.05-2.7-1-3.89-3.79-3.86q-13.71.11-27.42,0c-2.65,0-4,1-4,3.74q.07,14.56,0,29.13c0,2.69,1.11,3.91,3.84,3.89,9.14,0,18.28-.08,27.42,0,3.05,0,4-1.4,3.91-4.21C469.89,154,470,149.27,470,144.56ZM195.68,430.05c0-4.7-.1-9.4,0-14.1.09-3-.92-4.43-4.15-4.39-9,.12-17.95.1-26.93,0-2.87,0-4.14,1.06-4.12,4q.12,14.31,0,28.63c0,2.8.95,4.24,3.95,4.21,9.12-.08,18.24-.06,27.36,0,2.68,0,3.9-1.1,3.86-3.82C195.61,439.74,195.67,434.9,195.68,430.05ZM744.34,552.49c0-4.86-.05-9.71,0-14.57,0-2.73-1.18-3.85-3.87-3.83q-13.71.07-27.42,0c-2.74,0-3.82,1.19-3.81,3.88q.11,14.58,0,29.14c0,2.75,1.15,3.82,3.86,3.8q13.71-.1,27.42,0c2.74,0,3.87-1.13,3.83-3.84C744.29,562.2,744.35,557.35,744.34,552.49ZM587.48,144.58c0-4.85-.05-9.7,0-14.55,0-2.66-1-3.92-3.78-3.9q-13.69.11-27.4,0c-2.65,0-3.93.92-3.91,3.72q.11,14.57,0,29.12c0,2.65,1,3.94,3.74,3.92q13.71-.09,27.4,0c3,0,4-1.37,4-4.19C587.42,154,587.49,149.29,587.48,144.58Zm121.81-.09c0,4.85.06,9.7,0,14.56,0,2.71,1.09,3.86,3.82,3.84q13.71-.09,27.41,0c2.7,0,3.88-1.1,3.86-3.82q-.08-14.56,0-29.12c0-2.73-1.13-3.84-3.85-3.82q-13.71.11-27.41,0c-2.71,0-3.9,1.05-3.85,3.8C709.36,134.78,709.29,139.63,709.29,144.49ZM552.43,715.07c0,5,.06,10,0,15,0,2.72,1.12,3.87,3.84,3.85q13.69-.09,27.41,0c2.72,0,3.85-1.2,3.84-3.89q-.07-14.57,0-29.12c0-2.76-1.19-3.8-3.89-3.77q-13.7.11-27.41,0c-2.74,0-3.86,1.08-3.81,3.81C552.5,705.64,552.43,710.36,552.43,715.07ZM278.1,430c0,4.86.06,9.71,0,14.57-.05,2.69,1,3.91,3.79,3.9q13.72-.09,27.43,0c2.68,0,3.91-1.11,3.9-3.84q-.06-14.56,0-29.14c0-2.71-1.13-3.86-3.85-3.84q-13.73.09-27.43,0c-2.71,0-3.91,1-3.85,3.8C278.17,420.24,278.1,425.09,278.1,430ZM38.82,511.28c0-4.71-.08-9.43,0-14.14.07-2.93-1.12-4.06-4.06-4q-13.5.15-27,0c-2.88,0-4.17.95-4.14,3.95q.13,14.35,0,28.71c0,2.88,1.13,4.15,4.06,4.12q13.48-.1,27,0c2.87,0,4.18-1.12,4.12-4.06C38.75,521,38.82,516.14,38.82,511.28Zm548.66,41.3c0-4.86-.05-9.71,0-14.57,0-2.66-1-3.93-3.79-3.92q-13.71.09-27.42,0c-2.67,0-3.9,1-3.88,3.79q.09,14.57,0,29.13c0,2.67,1,3.92,3.75,3.9q13.71-.12,27.42,0c3,0,4-1.41,3.93-4.21C587.42,562,587.49,557.29,587.48,552.58ZM744.35,715.69c0-4.85-.08-9.71,0-14.56.07-3-1.16-4-4.08-4q-13.5.15-27,0c-2.93,0-4.1,1.07-4.07,4q.13,14.34,0,28.69c0,2.91,1.14,4.13,4.06,4.1q13.48-.1,27,0c2.91,0,4.14-1.19,4.08-4.1C744.28,725.11,744.35,720.4,744.35,715.69ZM78.11,511.41c0-4.71-.09-9.42,0-14.13.08-2.8-.76-4.21-3.86-4.17-9.14.13-18.27.1-27.41,0-2.74,0-3.85,1.12-3.84,3.82,0,9.57.07,19.13,0,28.69,0,3.15,1.33,4.31,4.39,4.28q13.28-.13,26.55,0c3.19,0,4.28-1.33,4.19-4.39C78,520.84,78.11,516.12,78.11,511.41ZM38.81,757c0-5,0-10,0-15,0-2.67-1.07-3.93-3.81-3.92q-13.71.07-27.41,0c-2.65,0-3.94,1-3.93,3.79q.07,14.57,0,29.13c0,2.71,1.06,3.85,3.82,3.82,9.14-.08,18.28-.09,27.41,0,3.05,0,4-1.32,4-4.15C38.74,766.14,38.82,761.57,38.81,757Zm39.3-.42c0-4.86-.07-9.71,0-14.56.05-2.66-.95-3.95-3.73-3.93q-13.7.07-27.4,0c-2.65,0-4,1-4,3.79,0,9.71,0,19.41,0,29.12,0,2.69,1.08,3.86,3.83,3.83,9.14-.07,18.27-.1,27.4,0,3.09,0,4-1.33,3.88-4.15C78,766,78.11,761.28,78.11,756.58ZM470,552.53c0-4.84-.06-9.68,0-14.53,0-2.65-1-3.93-3.75-3.91q-13.68.09-27.35,0c-2.91,0-4.1,1.22-4.08,4.1q.1,14.31,0,28.63c0,2.87,1.09,4.13,4,4.1q13.68-.12,27.35,0c2.75,0,3.85-1.14,3.8-3.85C469.9,562.22,470,557.38,470,552.53ZM156.33,756.6c0-4.71-.09-9.42,0-14.13.07-3-1.08-4.44-4.25-4.41q-13.28.15-26.55,0c-3,0-4.4,1-4.36,4.22.11,9.57.09,19.13,0,28.69,0,2.68.93,3.89,3.74,3.87q13.71-.14,27.41,0c3,0,4-1.27,4-4.12C156.25,766,156.32,761.31,156.33,756.6Zm39.34-.21c0-4.71-.06-9.42,0-14.13.06-2.84-1-4.21-4-4.19q-13.49.12-27,0c-2.82,0-4.23,1-4.21,4,.08,9.71,0,19.42,0,29.13,0,2.47,1,3.65,3.56,3.63,9.28-.05,18.56-.07,27.84,0,2.81,0,3.8-1.22,3.76-3.88C195.61,766.1,195.67,761.25,195.67,756.39ZM552.43,429.54c0,5,.06,10,0,15,0,2.71,1.08,3.89,3.81,3.88q13.71-.09,27.42,0c2.71,0,3.87-1.16,3.86-3.86q-.07-14.57,0-29.14c0-2.72-1.14-3.84-3.86-3.82q-13.71.09-27.42,0c-2.73,0-3.88,1.09-3.82,3.83C552.5,420.12,552.43,424.83,552.43,429.54Zm156.86.44c0,4.85.06,9.71,0,14.57,0,2.71,1.1,3.88,3.83,3.86q13.71-.07,27.42,0c2.71,0,3.86-1.16,3.85-3.87q-.09-14.57,0-29.13c0-2.74-1.14-3.85-3.86-3.83q-13.71.1-27.42,0c-2.73,0-3.88,1.1-3.83,3.83C709.35,420.26,709.29,425.12,709.29,430ZM313.19,756.62c0-4.86-.05-9.71,0-14.56,0-2.64-1-4-3.77-4q-13.92.06-27.84,0c-2.58,0-3.51,1.3-3.5,3.74q.06,14.77,0,29.55c0,2.64,1.27,3.45,3.71,3.44,9.14-.06,18.28-.09,27.41,0,3,0,4.07-1.24,4-4.1C313.12,766,313.19,761.33,313.19,756.62Zm396.1-489.56c0,4.85.06,9.71,0,14.56,0,2.72,1.1,3.86,3.83,3.84q13.7-.09,27.41,0c2.7,0,3.88-1.09,3.86-3.82q-.08-14.56,0-29.12c0-2.72-1.12-3.86-3.85-3.85q-13.71.11-27.41,0c-2.71,0-3.89,1.08-3.84,3.82C709.36,257.35,709.29,262.2,709.29,267.06Zm-156.86,0c0,4.86.07,9.71,0,14.56,0,2.74,1.11,3.85,3.83,3.83q13.71-.1,27.41,0c2.71,0,3.87-1.12,3.85-3.84q-.07-14.56,0-29.12c0-2.72-1.16-3.84-3.87-3.82q-13.7.09-27.4,0c-2.74,0-3.87,1.11-3.82,3.83C552.5,257.37,552.43,262.22,552.43,267.07ZM278.1,552.48c0,4.86.07,9.71,0,14.57-.05,2.7,1,3.88,3.79,3.86q13.71-.1,27.42,0c2.68,0,3.93-1,3.91-3.79q-.07-14.57,0-29.14c0-2.68-1.12-3.9-3.84-3.89q-13.72.07-27.43,0c-2.7,0-3.91,1.07-3.86,3.82C278.17,542.77,278.11,547.62,278.1,552.48ZM470,756.44c0-4.57-.11-9.14,0-13.71.1-3.18-.91-4.73-4.37-4.68-8.85.14-17.7.11-26.56,0-3.13,0-4.32,1.3-4.29,4.37q.13,14.13,0,28.27c0,2.84,1,4.17,4,4.13q13.71-.15,27.41,0c2.78,0,3.84-1.13,3.79-3.84C469.89,766.15,470,761.3,470,756.44ZM195.66,552.71c0-5,0-10,0-15,0-2.48-1.05-3.67-3.58-3.66q-13.89.06-27.78,0c-2.74,0-3.8,1.25-3.79,3.91q.08,14.54,0,29.06c0,2.7,1.09,3.86,3.82,3.84,9.12-.06,18.24-.08,27.35,0,3,0,4.07-1.24,4-4.1C195.6,562.12,195.67,557.41,195.66,552.71Zm82.45-286.06c0,5,.06,10,0,15-.05,2.74,1.12,3.84,3.84,3.82q13.71-.09,27.42,0c2.72,0,3.87-1.14,3.86-3.84q-.07-14.56,0-29.13c0-2.74-1.21-3.83-3.9-3.81q-13.71.09-27.41,0c-2.74,0-3.87,1.11-3.82,3.84C278.17,257.23,278.11,261.94,278.11,266.65ZM587.48,757c0-5,0-10,0-15,0-2.66-1-3.94-3.8-3.93q-13.69.07-27.4,0c-2.66,0-3.9,1-3.89,3.8q.09,14.57,0,29.12c0,2.69,1,3.87,3.77,3.84q13.7-.14,27.4,0c3,0,4-1.33,3.95-4.15C587.41,766.14,587.49,761.57,587.48,757ZM156.32,552.55c0-4.86,0-9.71,0-14.57,0-2.68-1.11-3.9-3.84-3.89q-13.71.07-27.42,0c-2.71,0-3.87,1.08-3.85,3.83q.11,14.57,0,29.13c0,2.71,1,3.89,3.78,3.87q13.71-.12,27.42,0c3.05,0,4-1.44,3.92-4.22C156.25,562,156.32,557.26,156.32,552.55Zm39.35-285.48c0-4.86,0-9.72,0-14.57,0-2.74-1.15-3.84-3.86-3.83q-13.72.11-27.43,0c-2.7,0-3.9,1.08-3.88,3.81q.08,14.58,0,29.15c0,2.73,1.17,3.84,3.88,3.82q13.71-.09,27.42,0c2.71,0,3.91-1.09,3.86-3.82C195.61,276.78,195.67,271.92,195.67,267.07Zm-39.34-.1c0-4.57-.11-9.14,0-13.7.1-3.24-1-4.68-4.44-4.63q-13.27.23-26.56,0c-3.22,0-4.21,1.33-4.17,4.38q.17,14.13,0,28.27c0,3.22,1.33,4.22,4.36,4.18q13.27-.15,26.56,0c3.18,0,4.31-1.33,4.24-4.38C156.23,276.4,156.32,271.68,156.33,267Zm588,489.68c0-4.71-.08-9.42,0-14.12.08-3-.92-4.5-4.15-4.47-9,.11-18,.09-27,0-3,0-4,1.3-4,4.16q.12,14.34,0,28.68c0,2.62.85,4,3.7,3.93,9.28-.09,18.55-.07,27.83,0,2.57,0,3.6-1.12,3.57-3.61C744.31,766.36,744.34,761.51,744.35,756.65ZM78.1,552.79c0-5,0-10,0-15,0-2.47-.93-3.7-3.51-3.69q-13.92.06-27.84,0c-2.46,0-3.72,1-3.71,3.58q0,14.77,0,29.56c0,2.47,1.05,3.66,3.6,3.65,9.28,0,18.56-.06,27.84,0,2.88,0,3.7-1.38,3.64-4C78,562.21,78.11,557.5,78.1,552.79ZM38.82,796.86c0-4.71-.07-9.42,0-14.13.06-2.82-.89-4.19-3.94-4.15-9.14.11-18.28.09-27.41,0-2.75,0-3.84,1.11-3.83,3.82q.11,14.57,0,29.13c0,2.76,1.26,3.8,3.92,3.79q13.71-.09,27.42,0c2.73,0,3.85-1.21,3.81-3.89C38.76,806.57,38.81,801.72,38.82,796.86Zm39.29.12c0-4.86-.08-9.71,0-14.56.06-2.71-1-3.86-3.76-3.83-9.13.09-18.26.07-27.4,0-2.65,0-4,.93-3.94,3.72q.08,14.55,0,29.11c0,2.67,1.11,3.91,3.84,3.9,9.13,0,18.26-.07,27.39,0,3.08,0,3.93-1.46,3.87-4.24C78,806.4,78.11,801.69,78.11,797ZM38.82,267.14c0-4.86-.06-9.71,0-14.57,0-2.68-1-3.91-3.8-3.89q-13.71.09-27.42,0c-2.65,0-4,.95-3.94,3.74q.09,14.57,0,29.14c0,2.67,1,3.92,3.8,3.9,9.14-.06,18.28-.08,27.42,0,3,0,4-1.39,4-4.19C38.75,276.57,38.82,271.85,38.82,267.14Zm82.43,529.73c0,4.85.06,9.7,0,14.55,0,2.68,1,3.92,3.77,3.91q13.7-.09,27.39,0c2.65,0,4-1,3.94-3.79q-.06-14.55,0-29.11c0-2.7-1.09-3.85-3.84-3.83-9.13.08-18.26.11-27.4,0-3.07,0-4,1.35-3.89,4.16C121.32,787.44,121.24,792.16,121.25,796.87Zm74.42.1c0-4.85-.06-9.71,0-14.56.05-2.72-1.06-3.85-3.82-3.82q-13.69.12-27.41,0c-2.66,0-4,.91-3.94,3.71q.09,14.57,0,29.13c0,2.68,1.1,3.91,3.83,3.89,9.14-.05,18.27-.07,27.41,0,3,0,4-1.44,3.93-4.23C195.61,806.4,195.67,801.69,195.67,797ZM3.69,552.62c0,4.7.07,9.4,0,14.1-.06,2.79.86,4.23,3.91,4.19,9.11-.09,18.23-.07,27.35,0,2.66,0,3.92-1,3.91-3.75q-.09-14.53,0-29.06c0-3-1.27-4.05-4.13-4-9,.07-17.95.09-26.92,0-3.24,0-4.22,1.47-4.14,4.45C3.78,543.22,3.69,547.92,3.69,552.62Zm192-408c0-4.71-.09-9.43,0-14.14.08-3-.87-4.47-4.14-4.43-9,.13-18,.11-27,0-2.94,0-4.09,1.16-4.07,4.07.08,9.56.06,19.13,0,28.7,0,2.6.88,4,3.71,4q13.92-.09,27.85,0c2.53,0,3.62-1.14,3.59-3.64C195.63,154.38,195.67,149.53,195.68,144.67Zm82.42,652.2c0,4.85.06,9.7,0,14.55-.05,2.69,1,3.92,3.78,3.91q13.69-.09,27.4,0c2.65,0,3.95-1,3.94-3.8q-.06-14.55,0-29.11c0-2.71-1.09-3.85-3.83-3.83-9.14.08-18.28.11-27.41,0-3.07,0-4,1.34-3.9,4.16C278.18,787.44,278.1,792.16,278.1,796.87ZM709.29,511.41c0,4.85.05,9.71,0,14.56,0,2.67,1,3.94,3.78,3.93q13.69-.09,27.41,0c2.66,0,3.91-1.09,3.9-3.83q-.08-14.57,0-29.12c0-2.71-1-3.85-3.81-3.82-9.14.08-18.27.1-27.41,0-3.08,0-4,1.35-3.9,4.16C709.36,502,709.28,506.7,709.29,511.41Zm0-448.38c0,4.85.06,9.71,0,14.56,0,2.72,1.1,3.86,3.83,3.84q13.7-.09,27.41,0c2.7,0,3.88-1.08,3.87-3.81q-.09-14.57,0-29.13c0-2.71-1.12-3.86-3.85-3.84q-13.71.1-27.41,0c-2.72,0-3.89,1.08-3.85,3.82C709.35,53.32,709.29,58.18,709.29,63Zm-553,81.52c0-4.86-.06-9.71,0-14.56,0-2.7-1.1-3.88-3.84-3.86q-13.69.11-27.4,0c-2.68,0-3.9,1-3.88,3.76q.12,14.56,0,29.12c0,2.69,1,3.9,3.77,3.89q13.71-.1,27.41,0c3,0,4-1.43,3.95-4.22C156.26,154,156.32,149.26,156.32,144.55ZM434.84,511.42c0,4.85,0,9.71,0,14.56,0,2.68,1.14,3.92,3.85,3.91q13.71-.06,27.42,0c2.68,0,3.91-1.08,3.89-3.83q-.09-14.57,0-29.13c0-2.73-1-3.84-3.81-3.81-9.14.08-18.28.1-27.42,0-3,0-4,1.34-4,4.16C434.9,502,434.83,506.7,434.84,511.42ZM3.69,144.52c0,4.72.07,9.43,0,14.14-.06,2.78.85,4.27,3.91,4.24q13.69-.12,27.41,0c2.73,0,3.86-1.15,3.85-3.86q-.09-14.57,0-29.13c0-2.76-1.21-3.79-3.89-3.77q-13.71.11-27.42,0c-2.73,0-3.89,1.1-3.84,3.83C3.76,134.81,3.7,139.67,3.69,144.52Zm309.5,366.93c0-4.71-.06-9.43,0-14.14,0-2.78-.83-4.23-3.91-4.19-9.14.11-18.27.09-27.41,0-2.74,0-3.85,1-3.83,3.78q.12,14.56,0,29.12c0,2.72,1.13,3.88,3.84,3.86q13.71-.07,27.42,0c2.7,0,3.89-1.18,3.86-3.88C313.14,521.16,313.18,516.3,313.19,511.45ZM552.43,796.57c0,4.85.07,9.71,0,14.56-.06,2.8.88,4.24,3.92,4.21,9.13-.09,18.26-.07,27.39,0,2.75,0,3.81-1.26,3.79-3.92q-.07-14.55,0-29.11c0-2.8-1.29-3.72-4-3.7q-13.69.12-27.39,0c-2.8,0-3.81,1.17-3.76,3.86C552.5,787.15,552.43,791.86,552.43,796.57ZM195.68,511.42c0-4.71-.08-9.43,0-14.14.06-2.8-.84-4.2-3.92-4.16-9.14.11-18.28.09-27.42,0-2.74,0-3.86,1.07-3.85,3.8.07,9.71.06,19.42,0,29.14,0,2.73,1.24,3.84,3.91,3.83q13.71-.07,27.42,0c2.73,0,3.86-1.22,3.82-3.9C195.62,521.13,195.67,516.28,195.68,511.42Zm160.56-81.69c0,4.71.13,9.42-.05,14.12-.12,3.24.95,4.66,4.37,4.6,9-.14,18-.11,26.95,0,3,0,4.44-.94,4.37-4.18-.14-7.27-.09-14.54,0-21.81,0-2.56-.67-4.2-3.58-4s-4.26-1-4.17-4c.07-2.29-1.44-2.84-3.39-2.84-7,0-14,.05-21,0-2.55,0-3.6,1.06-3.55,3.6C356.31,420,356.25,424.88,356.24,429.73Zm74.91.21c0-4.84,0-9.69,0-14.54,0-2.36-.61-3.82-3.33-3.8-6.84.06-13.68,0-20.52,0-1.83,0-3.13.68-3,2.71.17,3.25-1.55,4.34-4.48,4.09-3.1-.26-4.35,1.06-4.29,4.22.14,7.12.13,14.25,0,21.38,0,3,.93,4.45,4.16,4.41q13.68-.17,27.37,0c3.23,0,4.24-1.36,4.14-4.39C431.05,439.36,431.16,434.65,431.15,429.94Zm-74.91-40.71c0,4.71.18,9.43-.06,14.12-.19,3.65,1.31,4.7,4.75,4.59,6.12-.2,12.27-.24,18.39,0,3.75.15,5.29-1.14,4.87-4.9-.35-3,.61-5.06,4.2-4.69,2.63.28,3.5-1.1,3.47-3.58-.08-6.56-.11-13.12,0-19.68.06-3-1.34-4-4.15-4-9.13.07-18.26.1-27.38,0-3.24,0-4.23,1.39-4.13,4.41C356.35,380.1,356.24,384.67,356.24,389.23Zm74.89-.36h0c0-4.56-.1-9.13,0-13.69.09-3-1.16-4.07-4.06-4q-13.69.12-27.39,0c-2.79,0-4.25.9-4.2,3.94.11,6.57.08,13.13,0,19.69,0,2.47.86,3.91,3.49,3.58,4.24-.53,5.7,1.46,5.2,5.43-.4,3.23,1.17,4.23,4.25,4.15q9-.24,18,0c3.31.09,4.71-1.27,4.68-4.51C431.09,398.57,431.13,393.72,431.13,388.87Z"/></g></g></svg>